<svg id="Capa_1" data-name="Capa 1" xmlns="http://www.w3.org/2000/svg" viewBox="0 0 186.4 117.32"><defs><style>.cls-1{fill:#17243d;}</style></defs><title>imagotipo_cargo</title><g id="Shape"><path class="cls-1" d="M65.68,202.62a.37.37,0,0,1,.3.1c.1,0,.2.1.3.2l1.5,1.6a6.93,6.93,0,0,1-2.5,2,9.48,9.48,0,0,1-3.5.7,8.45,8.45,0,0,1-3.3-.6,7.6,7.6,0,0,1-4.1-4.5,8.81,8.81,0,0,1-.6-3.3,9.74,9.74,0,0,1,.6-3.4,7.58,7.58,0,0,1,4.3-4.3,8.57,8.57,0,0,1,5-.4c.5.1,1.1.3,1.5.4a5.39,5.39,0,0,1,1.3.7,10.63,10.63,0,0,1,1.1.9l-1.3,1.7-.3.3a.75.75,0,0,1-.5.1.6.6,0,0,1-.4-.1c-.1-.1-.2-.1-.4-.2s-.3-.2-.4-.3l-.6-.3a1.88,1.88,0,0,0-.8-.2,3.08,3.08,0,0,0-1-.1,4.67,4.67,0,0,0-1.7.3,4.51,4.51,0,0,0-1.4,1,4.17,4.17,0,0,0-.9,1.6,8.22,8.22,0,0,0,0,4.4,3.54,3.54,0,0,0,.9,1.6,4.51,4.51,0,0,0,1.4,1,4.67,4.67,0,0,0,1.7.3,2.48,2.48,0,0,0,.9-.1,1.88,1.88,0,0,0,.8-.2c.2-.1.5-.2.7-.3s.4-.3.7-.5c.1-.1.2-.1.3-.2S65.58,202.62,65.68,202.62Z" transform="translate(-53.78 -89.9)"/><path class="cls-1" d="M84.08,206.92h-2.9a1.88,1.88,0,0,1-.8-.2,2.65,2.65,0,0,1-.5-.6l-1-2.9h-6.2l-1,2.9a2.09,2.09,0,0,1-.4.6,1.14,1.14,0,0,1-.8.3h-3l6.3-16.4h3.9Zm-6-6.3-1.5-4.5a6.89,6.89,0,0,0-.4-1c-.1-.4-.3-.8-.4-1.3a5,5,0,0,1-.4,1.3,3,3,0,0,1-.4,1l-1.5,4.5Z" transform="translate(-53.78 -89.9)"/><path class="cls-1" d="M98.78,206.92h-3.4a1.51,1.51,0,0,1-1.4-.7l-2.7-4.8c-.1-.2-.3-.4-.4-.4a1.48,1.48,0,0,0-.7-.1h-1V207h-3.8v-16.4h5.3a8.72,8.72,0,0,1,3,.4,5.36,5.36,0,0,1,2,1,4.43,4.43,0,0,1,1.2,1.5,5.85,5.85,0,0,1,.4,1.9,7.72,7.72,0,0,1-.2,1.5,5.17,5.17,0,0,1-.6,1.3,5.24,5.24,0,0,1-1,1.1,6.38,6.38,0,0,1-1.4.8,3,3,0,0,1,.7.5,4.35,4.35,0,0,1,.6.7Zm-8-8.7a4.44,4.44,0,0,0,1.3-.2,1.93,1.93,0,0,0,.9-.5,2.18,2.18,0,0,0,.5-.8,3,3,0,0,0,.2-1A2.06,2.06,0,0,0,93,194a3.4,3.4,0,0,0-2.2-.6h-1.5v4.9h1.5Z" transform="translate(-53.78 -89.9)"/><path class="cls-1" d="M107.78,198.42h5.8v6.9a6.78,6.78,0,0,1-2.7,1.3,9.48,9.48,0,0,1-3,.4,10.64,10.64,0,0,1-3.7-.6,6.78,6.78,0,0,1-2.8-1.8,6.43,6.43,0,0,1-1.8-2.7,8.81,8.81,0,0,1-.6-3.3,9.74,9.74,0,0,1,.6-3.4,7.82,7.82,0,0,1,1.7-2.6,9.48,9.48,0,0,1,2.7-1.7,10.46,10.46,0,0,1,3.6-.6,11.08,11.08,0,0,1,1.9.2,8.45,8.45,0,0,1,1.7.5,6.11,6.11,0,0,1,1.4.7,10.63,10.63,0,0,1,1.1.9l-1.1,1.7a1.16,1.16,0,0,1-.7.5,1,1,0,0,1-.9-.2,5.58,5.58,0,0,1-.8-.5c-.3-.1-.5-.2-.8-.3s-.6-.1-.9-.2-.7-.1-1-.1a3.81,3.81,0,0,0-1.9.4,4.18,4.18,0,0,0-1.5,1.1,5.07,5.07,0,0,0-.9,1.6,7.11,7.11,0,0,0-.3,2.1,5.56,5.56,0,0,0,.4,2.3,4.78,4.78,0,0,0,1,1.7,4.57,4.57,0,0,0,1.6,1.1,6.47,6.47,0,0,0,2,.4,4.12,4.12,0,0,0,1.2-.1,4.87,4.87,0,0,0,1.1-.4v-2.5h-1.6a1.42,1.42,0,0,1-.6-.2.76.76,0,0,1-.2-.5Z" transform="translate(-53.78 -89.9)"/><path class="cls-1" d="M132.28,198.72a8.81,8.81,0,0,1-.6,3.3,9.48,9.48,0,0,1-1.7,2.7,7.52,7.52,0,0,1-2.7,1.8,9.51,9.51,0,0,1-3.5.6,9.89,9.89,0,0,1-3.5-.6,7.12,7.12,0,0,1-2.7-1.8,8.28,8.28,0,0,1-1.7-2.7,9.37,9.37,0,0,1,0-6.6,9.48,9.48,0,0,1,1.7-2.7,9.09,9.09,0,0,1,2.7-1.8,10.51,10.51,0,0,1,7,0,8,8,0,0,1,2.7,1.8,7.34,7.34,0,0,1,1.7,2.7A8.81,8.81,0,0,1,132.28,198.72Zm-3.9,0a7.8,7.8,0,0,0-.3-2.2,4.17,4.17,0,0,0-.9-1.6,3.32,3.32,0,0,0-1.4-1,5.85,5.85,0,0,0-1.9-.4,4.48,4.48,0,0,0-2,.4,4,4,0,0,0-1.5,1,4.17,4.17,0,0,0-.9,1.6,8.22,8.22,0,0,0,0,4.4,4.17,4.17,0,0,0,.9,1.6,4,4,0,0,0,1.5,1,5.92,5.92,0,0,0,2,.4,3.81,3.81,0,0,0,1.9-.4,3,3,0,0,0,1.4-1,4.17,4.17,0,0,0,.9-1.6A7.8,7.8,0,0,0,128.38,198.72Z" transform="translate(-53.78 -89.9)"/><path class="cls-1" d="M148.78,193.82a.78.78,0,0,1-.4.4.9.9,0,0,1-.5.1,1.42,1.42,0,0,1-.6-.2,5.74,5.74,0,0,1-.7-.4,7.93,7.93,0,0,0-.9-.4,3.59,3.59,0,0,0-1.1-.2,2.54,2.54,0,0,0-1.6.5,1.66,1.66,0,0,0-.5,1.2,1.14,1.14,0,0,0,.3.8,5.55,5.55,0,0,0,.8.6,3.37,3.37,0,0,0,1.2.4c.4.1.9.3,1.3.4s.9.4,1.3.6a8.34,8.34,0,0,1,1.2.8,3.6,3.6,0,0,1,.8,1.2,5.35,5.35,0,0,1-.1,3.8,5,5,0,0,1-1.1,1.7,5.67,5.67,0,0,1-1.8,1.2,6.57,6.57,0,0,1-2.5.4,10,10,0,0,1-1.6-.2c-.5-.1-1-.3-1.5-.4a6.11,6.11,0,0,1-1.4-.7,10.63,10.63,0,0,1-1.1-.9l1.1-1.8a1.38,1.38,0,0,1,.4-.3.75.75,0,0,1,.5-.1,1.85,1.85,0,0,1,.7.2,9.22,9.22,0,0,1,.8.5,9.29,9.29,0,0,0,1,.5,5.07,5.07,0,0,0,1.3.2,2.54,2.54,0,0,0,1.6-.5,1.68,1.68,0,0,0,.6-1.4,1.22,1.22,0,0,0-.3-.9,5.55,5.55,0,0,0-.8-.6,3.37,3.37,0,0,0-1.2-.4c-.4-.1-.9-.3-1.3-.4a5,5,0,0,1-1.3-.5,8.34,8.34,0,0,1-1.2-.8,4.11,4.11,0,0,1-.8-1.3,5.41,5.41,0,0,1-.3-1.9,3.92,3.92,0,0,1,.4-1.8,4.19,4.19,0,0,1,1.1-1.6,5.44,5.44,0,0,1,1.8-1.1,6.05,6.05,0,0,1,2.4-.4,7.57,7.57,0,0,1,1.5.1l1.4.3a6.72,6.72,0,0,1,1.2.6,8.65,8.65,0,0,1,1,.7Z" transform="translate(-53.78 -89.9)"/><polygon class="cls-1" points="102.2 103.52 102.2 107.32 107.4 107.32 107.4 110.12 102.2 110.12 102.2 114.02 108.9 114.02 108.9 116.92 98.3 116.92 98.3 100.52 108.9 100.52 108.9 103.42 102.2 103.42 102.2 103.52"/><path class="cls-1" d="M178.48,206.92h-3.4a1.51,1.51,0,0,1-1.4-.7l-2.7-4.8c-.1-.2-.3-.4-.4-.4a1.48,1.48,0,0,0-.7-.1h-1V207h-3.8v-16.4h5.3a8.72,8.72,0,0,1,3,.4,5.36,5.36,0,0,1,2,1,4.43,4.43,0,0,1,1.2,1.5,5.85,5.85,0,0,1,.4,1.9,7.72,7.72,0,0,1-.2,1.5,5.17,5.17,0,0,1-.6,1.3,5.24,5.24,0,0,1-1,1.1,6.38,6.38,0,0,1-1.4.8,3,3,0,0,1,.7.5,4.35,4.35,0,0,1,.6.7Zm-8-8.7a4.44,4.44,0,0,0,1.3-.2,1.93,1.93,0,0,0,.9-.5,2.18,2.18,0,0,0,.5-.8,3,3,0,0,0,.2-1,2.06,2.06,0,0,0-.7-1.7,3.4,3.4,0,0,0-2.2-.6h-1.6v4.9h1.6Z" transform="translate(-53.78 -89.9)"/><path class="cls-1" d="M194,190.52l-6.6,16.4H184l-6.6-16.4h3.1a1.88,1.88,0,0,1,.8.2,2.65,2.65,0,0,1,.5.6l3.2,8.8c.1.4.3.8.4,1.3s.3.9.4,1.4a5.73,5.73,0,0,1,.4-1.4c.1-.5.3-.9.4-1.3l3.2-8.8a2.09,2.09,0,0,1,.4-.6,1.14,1.14,0,0,1,.8-.3h3Z" transform="translate(-53.78 -89.9)"/><polygon class="cls-1" points="145.4 117.02 141.6 117.02 141.6 100.62 145.4 100.62 145.4 117.02"/><path class="cls-1" d="M213.38,202.62a.37.37,0,0,1,.3.1c.1,0,.2.1.3.2l1.5,1.6a6.93,6.93,0,0,1-2.5,2,7.82,7.82,0,0,1-3.5.7,8.45,8.45,0,0,1-3.3-.6,6.42,6.42,0,0,1-2.5-1.8,7.18,7.18,0,0,1-1.6-2.7,8.81,8.81,0,0,1-.6-3.3,9.74,9.74,0,0,1,.6-3.4,7.58,7.58,0,0,1,4.3-4.3,8.57,8.57,0,0,1,5-.4c.5.1,1.1.3,1.5.4a5.39,5.39,0,0,1,1.3.7,10.63,10.63,0,0,1,1.1.9l-1.3,1.7-.3.3a.75.75,0,0,1-.5.1.6.6,0,0,1-.4-.1c-.1-.1-.2-.1-.4-.2s-.3-.2-.4-.3l-.6-.3a1.88,1.88,0,0,0-.8-.2,3.08,3.08,0,0,0-1-.1,4.67,4.67,0,0,0-1.7.3,4.51,4.51,0,0,0-1.4,1,4.17,4.17,0,0,0-.9,1.6,8.22,8.22,0,0,0,0,4.4,3.54,3.54,0,0,0,.9,1.6,4.51,4.51,0,0,0,1.4,1,4.67,4.67,0,0,0,1.7.3,2.48,2.48,0,0,0,.9-.1,1.88,1.88,0,0,0,.8-.2c.2-.1.5-.2.7-.3s.4-.3.7-.5c.1-.1.2-.1.3-.2C213.18,202.72,213.28,202.62,213.38,202.62Z" transform="translate(-53.78 -89.9)"/><polygon class="cls-1" points="167.1 103.52 167.1 107.32 172.3 107.32 172.3 110.12 167.1 110.12 167.1 114.02 173.8 114.02 173.8 116.92 163.2 116.92 163.2 100.52 173.8 100.52 173.8 103.42 167.1 103.42 167.1 103.52"/><path class="cls-1" d="M239.08,193.82a.78.78,0,0,1-.4.4.75.75,0,0,1-.5.1,1.42,1.42,0,0,1-.6-.2,5.74,5.74,0,0,1-.7-.4,7.93,7.93,0,0,0-.9-.4,3.59,3.59,0,0,0-1.1-.2,2.54,2.54,0,0,0-1.6.5,1.66,1.66,0,0,0-.5,1.2,1.14,1.14,0,0,0,.3.8,5.55,5.55,0,0,0,.8.6,3.37,3.37,0,0,0,1.2.4c.4.1.9.3,1.3.4s.9.4,1.3.6a8.34,8.34,0,0,1,1.2.8,3.6,3.6,0,0,1,.8,1.2,5.35,5.35,0,0,1-.1,3.8,5,5,0,0,1-1.1,1.7,5.67,5.67,0,0,1-1.8,1.2,6.57,6.57,0,0,1-2.5.4,10,10,0,0,1-1.6-.2c-.5-.1-1-.3-1.5-.4a6.11,6.11,0,0,1-1.4-.7,10.63,10.63,0,0,1-1.1-.9l1.1-1.8a1.38,1.38,0,0,1,.4-.3.75.75,0,0,1,.5-.1,1.85,1.85,0,0,1,.7.2,9.22,9.22,0,0,1,.8.5,9.29,9.29,0,0,0,1,.5,5.07,5.07,0,0,0,1.3.2,2.54,2.54,0,0,0,1.6-.5,1.68,1.68,0,0,0,.6-1.4,1.22,1.22,0,0,0-.3-.9,5.55,5.55,0,0,0-.8-.6,3.37,3.37,0,0,0-1.2-.4c-.4-.1-.9-.3-1.3-.4a5,5,0,0,1-1.3-.5,8.34,8.34,0,0,1-1.2-.8,4.11,4.11,0,0,1-.8-1.3,5.41,5.41,0,0,1-.3-1.9,3.92,3.92,0,0,1,.4-1.8,4.19,4.19,0,0,1,1.1-1.6,5.44,5.44,0,0,1,1.8-1.1,6.05,6.05,0,0,1,2.4-.4,7.57,7.57,0,0,1,1.5.1l1.4.3a6.72,6.72,0,0,1,1.2.6,8.65,8.65,0,0,1,1,.7Z" transform="translate(-53.78 -89.9)"/></g><path class="cls-1" d="M54.91,164.29a.84.84,0,0,1,.77-.83,9.43,9.43,0,0,1,2.3.17,12.59,12.59,0,0,0,2,.09,12.8,12.8,0,0,0,2.86.06,12.82,12.82,0,0,1,4.71-.64,36.36,36.36,0,0,0,5.63,0,9,9,0,0,0,1.79-.15,1.19,1.19,0,0,1,.67.05,1,1,0,0,0,.87-.05,1,1,0,0,1,1.18,0,3.23,3.23,0,0,0,2,.2c1,0,1.93-.13,2.92-.08.75,0,4.47.23,5.26.14a9,9,0,0,1,2.12-.38,2.41,2.41,0,0,0,1.71-.1c.16-.11.39.05.59.1.77.21,1.56-.12,2.35,0,.11,0,2.47.44,3.16.13.18-.08.45-.21.57-.14.6.33,1.1-.07,1.63-.1a18.25,18.25,0,0,0,3.68-.62c.2-.1.46,0,.62,0a9.68,9.68,0,0,1,2.29.05,5.73,5.73,0,0,1,1.91.25,1.82,1.82,0,0,0,1.2,0,1.36,1.36,0,0,1,1.24.09c.21.13.45.24.66,0,.61-.57,1.43-.28,2.13-.54.47-.17,2.21.37,2.8.32s1.46-.13,2-.23a.73.73,0,0,0,.4-.28c.25-.27.48-.49.68,0a.2.2,0,0,0,.17.11c.66-.06,1.33.32,2,0a.55.55,0,0,1,.6.08c.48.25,1,.58,1.56.21.12-.08.24,0,.37,0a1.19,1.19,0,0,0,.72,0,2.91,2.91,0,0,1,2-.06,1.81,1.81,0,0,0,1-.12,3.35,3.35,0,0,1,1.3-.26,1.6,1.6,0,0,0,1.65-.8c.17-.32.44-.29.64,0a1.44,1.44,0,0,0,1.75.44c.34-.12.71-.25.86.23s3,.34,3.23-.15a8.9,8.9,0,0,1,1-1.8.54.54,0,0,1,.57.14.63.63,0,0,0,1.05,0c.11-.12.23-.2.39-.11s.14.18.09.34a.85.85,0,0,0,.5,1.2,3.85,3.85,0,0,0,1.31.19c.14,0,.46-.1.49-.3a1.28,1.28,0,0,0-.35-1c-.45-.47-.46-.47.15-.84.16-.1.11-.23.1-.35a.54.54,0,0,1,.31-.59c.3-.14.46,0,.65.16s.41.33.62.49a.21.21,0,0,0,.25,0c.12-.06.06-.15,0-.24-.12-.26-.09-.51.18-.61s.35.2.45.38,0,.21.23.19c.56-.06.8.17.8.79,0,.38,7.82-.44,9.77-1.4a2.16,2.16,0,0,1,1.28-.33,2.31,2.31,0,0,0,1.19-.23,33.87,33.87,0,0,1,4.07-.86,23.06,23.06,0,0,0,4-1.34,4.24,4.24,0,0,1,1.19-.26,9.11,9.11,0,0,0,2.33-.94s.08,0,.1-.05c.33-.84,1-1,1.83-1a3.64,3.64,0,0,0,1.75-1,3.78,3.78,0,0,1,1.83-.91,5.16,5.16,0,0,0,1-.42c2.1-.73,4.11-1.72,6.16-2.6l4.43-1.94a2.27,2.27,0,0,0,.72-.42,10.93,10.93,0,0,1,2.67-1.49,7.57,7.57,0,0,0,2.36-1.48,24,24,0,0,1,1.78-1.72,3.32,3.32,0,0,1,2.45-1.11,4.08,4.08,0,0,0,3-1.08,25.45,25.45,0,0,1,2.12-1.45,1.44,1.44,0,0,0,.53-.62,2,2,0,0,1,2-1.49c.59,0,1-.51,1.44-.8a12.54,12.54,0,0,1,2.45-1.31,1.82,1.82,0,0,0,.56-.43,12.68,12.68,0,0,0,3-2.75,5.79,5.79,0,0,0,.87-1.23c.12-.33.51-.52.81-.68.66-.34,1.18-.86,1.79-1.24.9-.56,1.75-1.19,2.6-1.82s1.63-1.24,2.4-1.91,1.71-1.66,2.57-2.48a36,36,0,0,1,4.28-3.71,8.87,8.87,0,0,0,1.33-1.34c.21-.21.41-.44.62-.65a.6.6,0,0,1,.64-.08c.23.06.2.28.21.47,0,.85,0,.84.87.75.23,0,.52-.11.67.16a.54.54,0,0,1-.15.62c-.8.93-1.3,2.12-2.5,2.67a1.87,1.87,0,0,0-.61.58A12.32,12.32,0,0,1,227.3,122c.73-.35,1.65-.07,2.2-.91.43-.65,1.12-1.1,1.61-1.73.31-.4.71-.17,1.07,0s.09.43,0,.67a4.58,4.58,0,0,1-.91,1.39,36.94,36.94,0,0,1-2.5,2.94,26.89,26.89,0,0,0-2.88,3.24,1.82,1.82,0,0,1-.58.52,4.06,4.06,0,0,0-1.15,1.51c-.11.19,0,.28.16.33a.45.45,0,0,0,.28,0c1.05-.61,2.44-.62,3.14-1.87.46-.82,1.38-1.17,2.1-1.72a5.21,5.21,0,0,0,1.14-1.06,9.9,9.9,0,0,1,2-1.89c.49-.38.83-.94,1.45-1.14.24-.07.47-.23.68,0s.1.47,0,.71c-.34.59-.65,1.19-1,1.77-.19.32-.13.44.23.54.55.14.63.38.39.92a1.58,1.58,0,0,1-.36.56,1.27,1.27,0,0,0-.49.79,1.08,1.08,0,0,1-.64.73.79.79,0,0,1-1.15-.27c-.43-.59-.62-.64-1-.24-.18.19-.4.4-.29.68s.37.34.65.36.36,0,.42.11c.46.72.85.13,1.28,0,.78-.3,1.17-1.12,2-1.42.23-.08.44-.16.62,0s0,.41-.12.58a2.05,2.05,0,0,1-.36.42c-1.47,1.36-3,2.7-4.4,4.07-.86.82-1.48,1.83-2.3,2.7a10.31,10.31,0,0,1-2,1.72,27.42,27.42,0,0,0-3,2.37,18.22,18.22,0,0,1-3.4,2.25,13.1,13.1,0,0,0-3,2.2,11.27,11.27,0,0,0-1.18,1.48,5.23,5.23,0,0,1-2.06,1.59,17.61,17.61,0,0,0-4,2.79,18.5,18.5,0,0,1-3.45,2.33,1.75,1.75,0,0,1-.81.19,2.22,2.22,0,0,0-1.85.78,9.29,9.29,0,0,1-2.15,1.49c-.89.61-1.85,1.12-2.77,1.7a1.36,1.36,0,0,1-.94.23,1.18,1.18,0,0,0-1.41.85c-.28.69-2.6.9-3,1.15-1.27.76-2.5,1.59-3.79,2.34-1.09.63-2.28,1.06-3.35,1.74a1.87,1.87,0,0,1-.93.16,5.85,5.85,0,0,0-2.73,1.2,30.12,30.12,0,0,1-3,1.36c-.57.29-1.19.46-1.75.76a5.19,5.19,0,0,1-1.63.36,7.26,7.26,0,0,0-2.69,1.17,18.45,18.45,0,0,1-2.36,1,18.09,18.09,0,0,1-3.54,1,8.72,8.72,0,0,0-2.67.92,1.34,1.34,0,0,1-.65.14c-.88.07-1.48.84-2.36.92-.2,0-.4,0-.61.06a21.14,21.14,0,0,0-5.1,1,14.66,14.66,0,0,1-2.94.71,8.6,8.6,0,0,0-1.28.33c-.9.22-1.88,0-2.74.44-.57.3-3.06.28-3.66.53a9.58,9.58,0,0,1-2.65,1,8.5,8.5,0,0,1-1.51.08,15.83,15.83,0,0,0-4.62.41,14.45,14.45,0,0,1-3.06.27,25.15,25.15,0,0,1-2.73.24c-1.43-.11-2.85.24-4.28.26-.87,0-1.77.27-2.64.3a9.84,9.84,0,0,1-2,.1,6.85,6.85,0,0,0-2.39,0,1.79,1.79,0,0,1-.73,0,4.24,4.24,0,0,0-1.7-.09A6.46,6.46,0,0,1,116,177a1.7,1.7,0,0,0-.86.13,3,3,0,0,1-1.78.15,1.33,1.33,0,0,0-.84.12,31.24,31.24,0,0,1-5.3-.12,9.51,9.51,0,0,0-2.8.24c-1.54,0-3.07.18-4.6.22a33.13,33.13,0,0,0-4.67.23c-.53.09-1-.21-1.54-.23a57.78,57.78,0,0,0-6.17.28c-2,.14-4-.22-5.92-.26a7.68,7.68,0,0,0-1.51.07,9.75,9.75,0,0,1-1.87,0,17.47,17.47,0,0,0-3.47-.1,9.57,9.57,0,0,1-1.69,0,15.94,15.94,0,0,0-3.31.09c-.35.07-.66-.11-1-.11a13.52,13.52,0,0,0-1.68.1,18.13,18.13,0,0,1-3.21-.07,13.19,13.19,0,0,0-1.54,0,34.17,34.17,0,0,1-3.5-.29c-1-.05-1.95-.18-2.93-.17-.26,0-.64.17-.75-.19m156-40.76a2.46,2.46,0,0,0,1.51-.49,4.81,4.81,0,0,0,1.86-1.51,7.18,7.18,0,0,1,1-1.28.77.77,0,0,0,.22-.32,1.27,1.27,0,0,1,1-.91c.22-.05.43-.13.32-.4a.42.42,0,0,0-.55-.28,2.76,2.76,0,0,0-1,.66,8.56,8.56,0,0,1-2.78,2.5,3.9,3.9,0,0,0-1.79,1.56c-.07.12-.29.19-.21.36S210.92,136.24,211.09,136.25Zm6.91-6.08a2.55,2.55,0,0,0,1.22-.51c.08,0,.23-.24.1-.39a.27.27,0,0,0-.4,0C218.66,129.58,218.25,129.7,218,130.17Zm6.13-5a.65.65,0,0,0,.45.79.16.16,0,0,0,.22-.22c-.12-.33-.08-.8-.51-.9C224,124.78,224.15,125.08,224.13,125.16Zm-3.28,3c0-.26-.13-.3-.29-.28a.44.44,0,0,0-.4.4c0,.25.21.23.35.24A.33.33,0,0,0,220.85,128.14Zm7.79,2.6c0-.13-.09-.24-.15-.21s-.43.14-.51.38c0,.06,0,.16.12.13S228.56,131,228.64,130.74Zm-83.82,28.58c.11,0,.23,0,.23-.16s-.12-.16-.23-.16-.24,0-.26.11S144.68,159.32,144.82,159.32Z" transform="translate(-53.78 -89.9)"/><path class="cls-1" d="M54.72,170.15" transform="translate(-53.78 -89.9)"/><path class="cls-1" d="M55,142c0-.15,1,0,1.25.23.72.48,4.31.26,5,.22a10.11,10.11,0,0,1,2.69.14,3.79,3.79,0,0,0,1.26.07,7.66,7.66,0,0,1,1.72.06,20,20,0,0,0,4.37,0c.36,0,1.62.32,1.93.18a1.08,1.08,0,0,1,.84-.08,1.84,1.84,0,0,0,1.11-.09,4.89,4.89,0,0,1,2.68-.25.53.53,0,0,0,.39,0c.64-.43,1.2-.06,1.78.16,0,0,.07,0,.1,0,1.18,0,2.36.21,3.54.12.57,0,1.15-.13,1.71-.21.37-.06,1.26-.37,1.27-.21a.8.8,0,0,1,.91,0,1.08,1.08,0,0,0,1.19,0,.83.83,0,0,1,.88.1.59.59,0,0,0,.9-.09.67.67,0,0,1,.83-.23.87.87,0,0,0,.95-.06.36.36,0,0,1,.27,0c1,.28,2-.12,3,.29a.47.47,0,0,0,.38,0c.53-.34,1-.06,1.46.11a2.32,2.32,0,0,0,1.54,0c.35-.11.37-.45.74-.66a1.88,1.88,0,0,1,1.23,0c.32,0,.26,0,.39-.12a8.92,8.92,0,0,1,3.13-.16c.58.28,1.13.66,1.64.5s2.91,0,3.71-.06a1.09,1.09,0,0,1,.51,0,2.14,2.14,0,0,0,1.75-.12,6.89,6.89,0,0,1,1.93-.22,7.7,7.7,0,0,0,1.65-.22c.47-.14,1,.25,1.45-.11h.06a1.14,1.14,0,0,0,.63-.1,1,1,0,0,1,.34,0,7.51,7.51,0,0,0,3.31-.62,2.4,2.4,0,0,1,1-.09,15.32,15.32,0,0,0,3.83,0,48.5,48.5,0,0,0,5.59-1.12,12.74,12.74,0,0,1,2.64-.79c2-.24,3.85-1.19,5.83-1.57a6.56,6.56,0,0,0,1.73-.73c.68-.35,1.41-.43,2.09-.74,1.71-.8,3.52-1.34,5.19-2.27,2-1.12,4.27-1.78,6.35-2.81a16.57,16.57,0,0,0,3.2-1.86,5.25,5.25,0,0,1,1.83-1.12,2.93,2.93,0,0,0,1.53-1.13,6.57,6.57,0,0,1,2.59-1.79A5,5,0,0,0,167,123a2.52,2.52,0,0,1,1.1-.84c1.05-.46,1.83-1.34,2.84-1.86.36-.19.44-.65.71-.94a9,9,0,0,1,1.84-1.36,1.54,1.54,0,0,0,.51-.43,2.08,2.08,0,0,1,1.28-.89.39.39,0,0,0,.26-.28,4,4,0,0,1,1.36-1.61,45.42,45.42,0,0,0,4.19-4.36,7.84,7.84,0,0,1,1.52-1,7.52,7.52,0,0,0,1.09-.84,13.29,13.29,0,0,0,2.31-2.87c.22-.45.65-.65,1-1a13.07,13.07,0,0,0,1.4-2c.38-.49.92-.77,1.27-1.3.75-1.1,1.86-1.91,2.59-3,.44-.68,1.17-1.11,1.62-1.8a16.55,16.55,0,0,1,1.61-2.35c.58-.64.87-1.5,1.6-2A7.53,7.53,0,0,0,198,91c.26-.29.56-.54.84-.8s.35-.39.62-.18a.52.52,0,0,1,.08.76c-.43.66-.86,1.32-1.33,2a7,7,0,0,0-.85,1.44c-.3.71-.85,1.23-1.19,1.89a6.92,6.92,0,0,0-.94,2,.66.66,0,0,0,.31.76.69.69,0,0,1,.38.74c-.06.47.17.45.49.28a3.57,3.57,0,0,0,1-1,10.9,10.9,0,0,1,1.89-1.83c.29-.22.59-.46.76.19.12.44.62.74.48,1.31a4.82,4.82,0,0,0-.29.78c0,.39.13.58.53.53a4.52,4.52,0,0,0,2.87-1.52c.13-.15.26-.35.48-.37.46,0,.7-.39,1-.66s.56-.7.91-.46.1.77-.11,1.06c-.48.67-.44,1.54-1,2.18a.17.17,0,0,0,0,.25.2.2,0,0,0,.3-.07c.28-.76,1-.79,1.6-.91a.55.55,0,0,0,.33-.21c.47-.62,1.09-.44,1.68-.27.42.12.51.4.27.82a9.73,9.73,0,0,1-2.08,2.39,1.7,1.7,0,0,1-1.25.44.69.69,0,0,0-.67.34,7.71,7.71,0,0,1-1.86,2.38,1.77,1.77,0,0,0-.41,1.55,2.17,2.17,0,0,1-.7,1.76,4.25,4.25,0,0,0-1,1.29A8.5,8.5,0,0,1,199,112.3a4.63,4.63,0,0,0-.82.91c-.27.49-.66.89-.92,1.39a3.14,3.14,0,0,1-1.67,1.49,1.49,1.49,0,0,0-1,1,2.62,2.62,0,0,1-1,1.24,11.69,11.69,0,0,0-2.42,3c-.08.13-.11.33-.22.39-.7.34-1,1.09-1.67,1.49a1.36,1.36,0,0,0-.41.38,7.36,7.36,0,0,1-2.53,2.25c-.88.53-1.63,1.22-2.48,1.78a3.4,3.4,0,0,1-.86.41,1.41,1.41,0,0,0-.78.41c-.56.78-1.48,1.1-2.12,1.78-.3.33-.85.33-1.15.77a6.36,6.36,0,0,1-2.19,2,7.46,7.46,0,0,0-1.2,1.13,12.52,12.52,0,0,1-2,1.54,35.47,35.47,0,0,0-3,2.36c-1.18.85-2.55,1.35-3.75,2.14a10.7,10.7,0,0,1-2.14,1.18,9.66,9.66,0,0,0-2.13,1.2c-1.18.79-2.43,1.48-3.67,2.18-.82.47-1.66.89-2.5,1.32a1.15,1.15,0,0,0-.57.6,6.55,6.55,0,0,1-1.2,1.2c-.25.47-1.1,1.51-1.26,1.38-.35-.27-.57-.3-.86.13a.72.72,0,0,1-1.09.26.59.59,0,0,0-.63-.05c-.71.34-1.58.14-2.25.69a4.19,4.19,0,0,1-1.76,1.12l0,0a2.33,2.33,0,0,1-.65.11,8.78,8.78,0,0,0-2,.27c-.4,0-3.62.44-4.22,1-.28.28-.54.5-1,.21-.14-.11-.31,0-.48,0a8.19,8.19,0,0,1-2.92.56,3,3,0,0,0-2,.8c-.3.27-.57.32-.83.08s-.47-.13-.68.05a1.16,1.16,0,0,1-1.33.23,27.78,27.78,0,0,1-3.06.31,7.71,7.71,0,0,0-2.27-.3c-.09,0-.19.07-.26.09a4.71,4.71,0,0,1-2.4,0c-.12,0-.28.07-.42.09a36.54,36.54,0,0,1-5.51.68.69.69,0,0,0-.41.15,1.07,1.07,0,0,1-1.19.16c-.32-.2-.6,0-.86.05-.59.14-1.24-.08-1.79.3a.42.42,0,0,1-.48-.06c-.38-.35-.73-.19-1.1,0a1.46,1.46,0,0,1-.87.18c-.11,0-.26,0-.33,0-.75.64-1.67.44-2.52.54a1.26,1.26,0,0,1-.67,0,.94.94,0,0,0-1,.17.69.69,0,0,1-.82.1,1,1,0,0,0-1,0,.91.91,0,0,1-.77.05,1.18,1.18,0,0,0-1.11.16,1,1,0,0,1-1.1,0c-.23-.13-.48-.22-.72.1s-.51.12-.75,0a.73.73,0,0,0-1,.14.67.67,0,0,1-.87.09,1.68,1.68,0,0,0-1.3-.08c-.35.11-.65-.09-1-.14a2.32,2.32,0,0,0-2.46.76.54.54,0,0,1-.71.14,3.44,3.44,0,0,0-2.42-.51c-.23.06-.42-.12-.61-.25A1.91,1.91,0,0,0,87,157.4a.21.21,0,0,1-.11,0c-1-.34-2,.68-3.1.14a.43.43,0,0,0-.31.09,1.64,1.64,0,0,1-1.42,0c-.31-.09-.61-.21-.86.1-.07.08-.17.12-.23,0-.25-.37-.57-.33-.93-.23s-.42-.09-.59-.25-.63-.48-1-.16a.38.38,0,0,1-.42,0,4.58,4.58,0,0,0-3,.11c-.33.09-.53.41-1,.16-.16-.1-.49,0-.73-.16a.24.24,0,0,0-.1-.05c-.94.21-1.91,0-2.84.22-.18,0-.36.15-.54.1a1,1,0,0,0-1.13.19c-.13.12-.42.08-.64,0a6.38,6.38,0,0,0-2.29-.44c-1-.14-2,.31-2.93-.33-.34-.23-.84-.11-1.29-.07-1.11.09-2.22.07-3.33.14a6.58,6.58,0,0,1-1.88,0,.94.94,0,0,0-.54.09.81.81,0,0,1-1.11-.55m140.66-55.43c0-.16,0-.28-.12-.33a.23.23,0,0,0-.29.12c-.19.37-.63.5-.78.94a.69.69,0,0,1-.75.39c-.33,0-.43-.25-.45-.55a.23.23,0,0,0-.27-.22,1.06,1.06,0,0,0-.67.64c-.13.24-.32.5-.06.77a1,1,0,0,1,.24,1.18.32.32,0,0,0,.48.41c.43-.25.93-.45,1.09-1a3.18,3.18,0,0,1,.75-1.16A3.1,3.1,0,0,0,195.39,101.07Zm3,3.61a.54.54,0,0,0-.67.51c-.07.37-.13.73-.19,1.09,0,.11,0,.24.08.31a.27.27,0,0,0,.3-.08,4.59,4.59,0,0,0,1-1.05C199.2,105,199,104.68,198.4,104.68Zm-8.6,11.11c.35-.15.74-.17.92-.59s.34-.93.91-1a.23.23,0,0,0,.12-.33c-.09-.15-.22-.1-.34,0a5.4,5.4,0,0,0-.89.57c-.29.28-.68.46-.9.82S189.51,115.67,189.8,115.79Zm8.09-15.5c0,.1.12.11.21.12a.52.52,0,0,0,.52-.25c0-.06.08-.15,0-.19s-.32.11-.49.15S197.9,100.14,197.89,100.29Z" transform="translate(-53.78 -89.9)"/><path class="cls-1" d="M54.88,122.34a.26.26,0,0,1,.34.21c.05.17.18.35.26.13.17-.49.5-.29.72-.19.62.26,7.37,0,7.88.16a1.77,1.77,0,0,0,.93-.08c.76-.21,3.36.57,3.82.64.82.13,5.45.15,5.64.09a1.72,1.72,0,0,1,1,0,1.91,1.91,0,0,0,1.42-.07,2,2,0,0,1,1.56,0,1.4,1.4,0,0,0,.76,0,12.61,12.61,0,0,1,1.93-.26,1.4,1.4,0,0,1,.87.16,2.68,2.68,0,0,0,1.76.14c.61-.11,1.21,0,1.81-.06.82-.07,1.65,0,2.48-.13.33,0,.65.14,1,.12,1.19-.07,2.4.13,3.53-.45a1.83,1.83,0,0,1,1-.13,10.48,10.48,0,0,0,2.94-.45c.81-.12,1.64-.17,2.44-.29a23.62,23.62,0,0,0,2.44-.2,5.46,5.46,0,0,1,1.93-.4,4.85,4.85,0,0,0,2.87-.59,2.59,2.59,0,0,1,1.15-.2,7.26,7.26,0,0,0,2.45-.48,6,6,0,0,1,2.17-.58,2.3,2.3,0,0,0,.92-.34,15.18,15.18,0,0,1,4.52-1.92,14.23,14.23,0,0,0,1.51-.67,5.08,5.08,0,0,1,.69-.23,3,3,0,0,0,1.66-.82c.48-.46,1.19-.49,1.73-.86,1.47-1,3.07-1.77,4.54-2.78a13.53,13.53,0,0,1,2.28-1.15,33.78,33.78,0,0,0,3.8-2.35,10.15,10.15,0,0,0,1.15-1.07c1-.88,2.52-1.13,3.29-2.36a.5.5,0,0,1,.26-.22,4.87,4.87,0,0,0,2.53-2,2.19,2.19,0,0,1,1.41-.79,1.41,1.41,0,0,0,1.13-.75,3.16,3.16,0,0,1,1.7-1.38c.19-.09.36,0,.53.07.37,0,.72,0,.65-.49a.64.64,0,0,1,.45-.79,1,1,0,0,1,1.09.2,2.18,2.18,0,0,0,1,.68.42.42,0,0,1,.25.64,5.4,5.4,0,0,1-1.27,2c-.68.57-1.11,1.43-1.82,2a3.53,3.53,0,0,0-1.22,1.18,4.8,4.8,0,0,0,2.31-1c.78-.7,1.29-1.66,2.26-2.18a3.62,3.62,0,0,0,1.12-1,.6.6,0,0,1,.08-.08c.26-.25.61-.56.9-.39s-.15.46-.23.71-.35.7.27.85a.4.4,0,0,0,.5-.2,4.09,4.09,0,0,1,1.24-1.28,2.86,2.86,0,0,0,.57-.76,19.08,19.08,0,0,1,2.26-3,5.68,5.68,0,0,0,1-1.15c.14-.21.49-.5.64-.29.27.37-.14,1-.53,1.37-.07.09-.26.17-.13.31s.23,0,.34-.07a2.08,2.08,0,0,1,1.9-.29.82.82,0,0,1,.66.58c.11.39.36.4.68.28a1.76,1.76,0,0,0,1.22-1.31.31.31,0,0,1,.42-.26.25.25,0,0,1,.09.42c-.81.8-.91,2-1.78,2.82-.19.17-.39.41-.62.46a.93.93,0,0,0-.81,1,.91.91,0,0,1-.45.72c-.77.41-1.2,1.22-2,1.63-.41.21-.35.83-.72,1.17a4.43,4.43,0,0,0-1.52,2.57.86.86,0,0,1-.51.65,2,2,0,0,0-1.21,1.65,1.14,1.14,0,0,1-.75.79,6.6,6.6,0,0,0-3.09,2.72,2.28,2.28,0,0,1-.72.62,5.63,5.63,0,0,0-1.43,1.49,1.46,1.46,0,0,1-.49.44,11.94,11.94,0,0,0-3.51,3.28,2.61,2.61,0,0,1-1,.8,5,5,0,0,0-2.15,1.67.77.77,0,0,1-.4.29,11.78,11.78,0,0,0-3.49,2c-.66.43-3.69,3.3-4,3.55a13.72,13.72,0,0,0-2.09,1.43.38.38,0,0,1-.24.13,3.76,3.76,0,0,0-1.89.92c-.67.62-.78.52-1.29.39a18.09,18.09,0,0,0-2.71.34,1.07,1.07,0,0,0-.54.27,7.42,7.42,0,0,1-2.28,1.11,1,1,0,0,0-.35.17,53.86,53.86,0,0,1-5.36,1.51,4.23,4.23,0,0,0-2.19.82c-.07.05-3.22.33-3.36.39-1,.39-4.3,1-4.8,1.38a16.7,16.7,0,0,0-2.52.67,2.22,2.22,0,0,1-.72.26c-1.06.18-2.2-.11-3.22.43a13.89,13.89,0,0,1-2.25,0,9.35,9.35,0,0,0-2.63.18c-.55.28-3.49,0-4.32.35-.14.05-1.08-.24-1.43,0-.18.1-1.37.16-2,.38a21,21,0,0,1-4.09-.19c-.89-.4-3.34.4-4,.32a21.67,21.67,0,0,0-2.3-.1c-.88.13-4.06-.22-4.76-.13a1.07,1.07,0,0,1-.61-.05,19.17,19.17,0,0,0-3.68-.5,25.8,25.8,0,0,1-3.29,0,26.7,26.7,0,0,0-3.34-.26,2.63,2.63,0,0,1-1.16-.11,3,3,0,0,0-.95-.1,2.54,2.54,0,0,1-.63,0,2.71,2.71,0,0,0-1.14,0,.59.59,0,0,1-.63-.22" transform="translate(-53.78 -89.9)"/><path class="cls-1" d="M54.74,129.68" transform="translate(-53.78 -89.9)"/><path class="cls-1" d="M55,133.69" transform="translate(-53.78 -89.9)"/><path class="cls-1" d="M153.69,93.42a.66.66,0,0,1-.19.86,2.53,2.53,0,0,0-.85,1.32c-.06.19-.17.43-.41.35s-.32-.31-.16-.59A7.61,7.61,0,0,1,153.69,93.42Z" transform="translate(-53.78 -89.9)"/><path class="cls-1" d="M168.69,147.14a.27.27,0,0,1-.2.36.76.76,0,0,1-.72-.13,4.21,4.21,0,0,1-.58-.74.27.27,0,0,1,0-.4c.1-.09.21-.21.33-.09a3.73,3.73,0,0,0,1,.67A.3.3,0,0,1,168.69,147.14Z" transform="translate(-53.78 -89.9)"/><path class="cls-1" d="M150.73,97.78c.05.46-.26.7-.67.86-.19.08-.41.14-.52,0a.51.51,0,0,1,0-.63,2.07,2.07,0,0,1,.65-.6C150.65,97.17,150.73,97.21,150.73,97.78Z" transform="translate(-53.78 -89.9)"/><path class="cls-1" d="M79.94,139.29a2.68,2.68,0,0,1,1.09.94.35.35,0,0,1-.13.4c-.13.07-.33.12-.4,0-.16-.32-.48-.39-.73-.57a.44.44,0,0,1-.19-.54A.3.3,0,0,1,79.94,139.29Z" transform="translate(-53.78 -89.9)"/><path class="cls-1" d="M89.64,159.75c-.17.35-.33.71-.52,1.06-.06.1-.19.17-.28.05s-.34-.37-.18-.59a3.91,3.91,0,0,1,.66-.69C89.45,159.47,89.61,159.51,89.64,159.75Z" transform="translate(-53.78 -89.9)"/><path class="cls-1" d="M148,157.91c0-.26.09-.43.35-.4s.48.05.45.37-.18.54-.47.53A.42.42,0,0,1,148,157.91Z" transform="translate(-53.78 -89.9)"/><path class="cls-1" d="M87.82,140.65a.6.6,0,0,1-.53.54.28.28,0,0,1-.27-.35.57.57,0,0,1,.55-.53C87.76,140.28,87.85,140.37,87.82,140.65Z" transform="translate(-53.78 -89.9)"/><path class="cls-1" d="M107.62,139.64c-.06.21-.16.43-.39.42a.38.38,0,0,1-.41-.43c0-.26.15-.34.39-.35S107.54,139.46,107.62,139.64Z" transform="translate(-53.78 -89.9)"/><path class="cls-1" d="M170.4,145.23c-.05.26-.21.31-.42.32s-.31-.08-.29-.3a.36.36,0,0,1,.71,0Z" transform="translate(-53.78 -89.9)"/><path class="cls-1" d="M157.05,151c.11,0,.26,0,.24.27s-.11.35-.35.35-.33-.09-.34-.29S156.75,151,157.05,151Z" transform="translate(-53.78 -89.9)"/><path class="cls-1" d="M157.39,154.56a.45.45,0,0,1,.23.4c0,.23-.14.33-.36.32s-.27-.18-.26-.35S157.2,154.64,157.39,154.56Z" transform="translate(-53.78 -89.9)"/><path class="cls-1" d="M168.32,145.18c.19,0,.28.16.26.32s-.17.27-.36.27-.23-.13-.22-.29S168.22,145.27,168.32,145.18Z" transform="translate(-53.78 -89.9)"/><path class="cls-1" d="M147.69,157c0,.22,0,.42-.21.4a.39.39,0,0,1-.36-.36.28.28,0,0,1,.28-.29C147.57,156.78,147.72,156.88,147.69,157Z" transform="translate(-53.78 -89.9)"/><path class="cls-1" d="M169,150.8c0,.14-.07.28-.26.29s-.28-.05-.28-.24,0-.26.21-.26S169,150.6,169,150.8Z" transform="translate(-53.78 -89.9)"/><path class="cls-1" d="M169.38,146.16c0,.14,0,.29-.19.28a.26.26,0,0,1-.28-.28.27.27,0,0,1,.26-.31C169.39,145.83,169.38,146,169.38,146.16Z" transform="translate(-53.78 -89.9)"/><path class="cls-1" d="M170.94,145.63a.28.28,0,0,1,.24.32c0,.14-.1.27-.24.25s-.24-.21-.23-.39S170.79,145.61,170.94,145.63Z" transform="translate(-53.78 -89.9)"/><path class="cls-1" d="M113.75,140.34c-.14,0-.26-.11-.24-.25a.37.37,0,0,1,.33-.33c.18,0,.25.16.23.32A.28.28,0,0,1,113.75,140.34Z" transform="translate(-53.78 -89.9)"/><path class="cls-1" d="M97.66,139.22c-.09.12-.07.35-.31.33a.23.23,0,0,1-.24-.25.39.39,0,0,1,.32-.34C97.57,138.94,97.64,139.08,97.66,139.22Z" transform="translate(-53.78 -89.9)"/><path class="cls-1" d="M78.69,161.17a.51.51,0,0,1-.36-.34.2.2,0,0,1,.21-.26.37.37,0,0,1,.33.31C78.92,161,78.77,161.09,78.69,161.17Z" transform="translate(-53.78 -89.9)"/><path class="cls-1" d="M91.61,137.59a.28.28,0,0,1,.29.28.26.26,0,0,1-.2.3c-.18,0-.26-.12-.27-.29S91.4,137.61,91.61,137.59Z" transform="translate(-53.78 -89.9)"/><path class="cls-1" d="M143.94,157.74c0,.16,0,.31-.21.34s-.24-.11-.25-.25a.28.28,0,0,1,.29-.33C143.93,157.5,143.94,157.62,143.94,157.74Z" transform="translate(-53.78 -89.9)"/><path class="cls-1" d="M167.85,152c-.17,0-.22-.13-.25-.24s.08-.24.23-.24a.24.24,0,0,1,.28.25C168.11,151.9,168,152,167.85,152Z" transform="translate(-53.78 -89.9)"/><path class="cls-1" d="M86.36,139.75a.27.27,0,0,1,.22.29c0,.17-.09.31-.27.28a.26.26,0,0,1-.19-.31A.27.27,0,0,1,86.36,139.75Z" transform="translate(-53.78 -89.9)"/><path class="cls-1" d="M105.7,139.78c0,.17-.08.23-.24.23s-.23-.09-.23-.25.08-.27.27-.25S105.71,139.63,105.7,139.78Z" transform="translate(-53.78 -89.9)"/><path class="cls-1" d="M99.22,139a.28.28,0,0,1,.26.28c0,.2-.16.26-.28.26s-.19-.14-.19-.28S99,138.94,99.22,139Z" transform="translate(-53.78 -89.9)"/><path class="cls-1" d="M151.07,156.58c.19,0,.34,0,.34.22a.26.26,0,0,1-.26.23.3.3,0,0,1-.3-.27C150.81,156.55,151,156.61,151.07,156.58Z" transform="translate(-53.78 -89.9)"/><path class="cls-1" d="M87.79,160c-.13,0-.25,0-.26-.17a.31.31,0,0,1,.27-.31c.15,0,.25.1.24.24A.25.25,0,0,1,87.79,160Z" transform="translate(-53.78 -89.9)"/><path class="cls-1" d="M106.49,140.79c-.26,0-.24-.14-.24-.27s0-.29.2-.26.21.21.21.35S106.55,140.78,106.49,140.79Z" transform="translate(-53.78 -89.9)"/><path class="cls-1" d="M77.62,159.88c.26,0,.27.16.34.28a.17.17,0,0,1-.13.26c-.21,0-.21-.22-.29-.36S77.58,159.91,77.62,159.88Z" transform="translate(-53.78 -89.9)"/><path class="cls-1" d="M77.29,138.8c0,.12,0,.18-.14.19s-.22-.16-.26-.29a.16.16,0,0,1,.15-.19C77.24,138.49,77.2,138.71,77.29,138.8Z" transform="translate(-53.78 -89.9)"/><path class="cls-1" d="M195.39,101.07a3.1,3.1,0,0,1-.83,1.19,3.18,3.18,0,0,0-.75,1.16c-.16.55-.66.75-1.09,1a.32.32,0,0,1-.48-.41,1,1,0,0,0-.24-1.18c-.26-.27-.07-.53.06-.77a1.06,1.06,0,0,1,.67-.64.23.23,0,0,1,.27.22c0,.3.12.52.45.55a.69.69,0,0,0,.75-.39c.15-.44.59-.57.78-.94a.23.23,0,0,1,.29-.12C195.41,100.79,195.38,100.91,195.39,101.07Z" transform="translate(-53.78 -89.9)"/><path class="cls-1" d="M198.4,104.68c.61,0,.8.29.49.78a4.59,4.59,0,0,1-1,1.05.27.27,0,0,1-.3.08c-.11-.07-.1-.2-.08-.31.06-.36.12-.72.19-1.09A.54.54,0,0,1,198.4,104.68Z" transform="translate(-53.78 -89.9)"/><path class="cls-1" d="M189.8,115.79q-.44-.18-.18-.6c.22-.36.61-.54.9-.82a5.4,5.4,0,0,1,.89-.57c.12-.08.25-.13.34,0a.23.23,0,0,1-.12.33c-.57.12-.72.61-.91,1S190.15,115.64,189.8,115.79Z" transform="translate(-53.78 -89.9)"/><path class="cls-1" d="M134.5,150.84" transform="translate(-53.78 -89.9)"/><path class="cls-1" d="M164.56,150.68c.05-.06.09-.19.19-.08s0,.16-.08.22Z" transform="translate(-53.78 -89.9)"/></svg>