<svg id="Capa_1" data-name="Capa 1" xmlns="http://www.w3.org/2000/svg" viewBox="0 0 186.4 117.32"><defs><style>.cls-1{fill:#fff;}</style></defs><title>imagotipo_cargo_blanco</title><g id="Shape"><path class="cls-1" d="M11.9,112.71a.37.37,0,0,1,.3.1c.1,0,.2.1.3.2l1.5,1.6a7,7,0,0,1-2.5,2,9.54,9.54,0,0,1-3.5.7,8.47,8.47,0,0,1-3.3-.6,7.59,7.59,0,0,1-4.1-4.5,8.85,8.85,0,0,1-.6-3.3,9.86,9.86,0,0,1,.6-3.4,7.58,7.58,0,0,1,4.3-4.3,8.55,8.55,0,0,1,5-.4c.5.1,1.1.3,1.5.4a5.44,5.44,0,0,1,1.3.7,12,12,0,0,1,1.1.9l-1.3,1.7-.3.3a.74.74,0,0,1-.5.1.58.58,0,0,1-.4-.1c-.1-.1-.2-.1-.4-.2a1.38,1.38,0,0,1-.4-.3l-.6-.3a2,2,0,0,0-.8-.2,3.07,3.07,0,0,0-1-.1,4.69,4.69,0,0,0-1.7.3A4.49,4.49,0,0,0,5,105a4.3,4.3,0,0,0-.9,1.6,8.22,8.22,0,0,0,0,4.4,3.45,3.45,0,0,0,.9,1.6,4.49,4.49,0,0,0,1.4,1,4.69,4.69,0,0,0,1.7.3,2.5,2.5,0,0,0,.9-.1,1.86,1.86,0,0,0,.8-.2c.2-.1.5-.2.7-.3s.4-.3.7-.5c.1-.1.2-.1.3-.2S11.8,112.71,11.9,112.71Z"/><path class="cls-1" d="M30.3,117H27.4a1.86,1.86,0,0,1-.8-.2,2.62,2.62,0,0,1-.5-.6l-1-2.9H18.9l-1,2.9a2.17,2.17,0,0,1-.4.6,1.12,1.12,0,0,1-.8.3h-3l6.3-16.4h3.9Zm-6-6.3-1.5-4.5a7.19,7.19,0,0,0-.4-1c-.1-.4-.3-.8-.4-1.3a4.9,4.9,0,0,1-.4,1.3,3.09,3.09,0,0,1-.4,1l-1.5,4.5Z"/><path class="cls-1" d="M45,117H41.6a1.49,1.49,0,0,1-1.4-.7l-2.7-4.8c-.1-.2-.3-.4-.4-.4a1.51,1.51,0,0,0-.7-.1h-1v6.08H31.6v-16.4h5.3a8.7,8.7,0,0,1,3,.4,5.38,5.38,0,0,1,2,1,4.48,4.48,0,0,1,1.2,1.5,5.92,5.92,0,0,1,.4,1.9,7.52,7.52,0,0,1-.2,1.5,5.12,5.12,0,0,1-.6,1.3,5.5,5.5,0,0,1-1,1.1,6.68,6.68,0,0,1-1.4.8,2.88,2.88,0,0,1,.7.5,4.44,4.44,0,0,1,.6.7Zm-8-8.7a4.41,4.41,0,0,0,1.3-.2,1.87,1.87,0,0,0,.9-.5,2.3,2.3,0,0,0,.5-.8,3.12,3.12,0,0,0,.2-1,2,2,0,0,0-.68-1.72,3.38,3.38,0,0,0-2.2-.6h-1.5v4.9H37Z"/><path class="cls-1" d="M54,108.51h5.8v6.9a6.78,6.78,0,0,1-2.7,1.3,9.49,9.49,0,0,1-3,.4,10.6,10.6,0,0,1-3.7-.6,6.83,6.83,0,0,1-2.8-1.8,6.43,6.43,0,0,1-1.8-2.7,8.85,8.85,0,0,1-.6-3.3,9.86,9.86,0,0,1,.6-3.4,7.91,7.91,0,0,1,1.7-2.6,9.62,9.62,0,0,1,2.7-1.7,10.51,10.51,0,0,1,3.6-.6,11,11,0,0,1,1.9.2,8.49,8.49,0,0,1,1.7.5,5.92,5.92,0,0,1,1.4.7,12,12,0,0,1,1.1.9l-1.1,1.7a1.15,1.15,0,0,1-.7.5,1,1,0,0,1-.9-.2,5.1,5.1,0,0,1-.8-.5c-.3-.1-.5-.2-.8-.3s-.6-.1-.9-.2a3.4,3.4,0,0,0-1-.1,3.79,3.79,0,0,0-1.9.4,4.2,4.2,0,0,0-1.5,1.1,5.16,5.16,0,0,0-.9,1.6,7.11,7.11,0,0,0-.3,2.1,5.64,5.64,0,0,0,.4,2.3,4.72,4.72,0,0,0,1,1.7,4.54,4.54,0,0,0,1.6,1.1,6.53,6.53,0,0,0,2,.4,4,4,0,0,0,1.2-.1,4.83,4.83,0,0,0,1.1-.4v-2.5H54.8a1.42,1.42,0,0,1-.6-.2.72.72,0,0,1-.2-.5Z"/><path class="cls-1" d="M78.5,108.81a8.85,8.85,0,0,1-.6,3.3,9.4,9.4,0,0,1-1.7,2.7,7.58,7.58,0,0,1-2.7,1.8,9.52,9.52,0,0,1-3.5.6,10,10,0,0,1-3.5-.6,7,7,0,0,1-2.7-1.8,8.29,8.29,0,0,1-1.7-2.7,9.37,9.37,0,0,1,0-6.6,9.62,9.62,0,0,1,1.7-2.7,9,9,0,0,1,2.7-1.8,10.51,10.51,0,0,1,7,0,8,8,0,0,1,2.7,1.8,7.28,7.28,0,0,1,1.7,2.7A8.85,8.85,0,0,1,78.5,108.81Zm-3.9,0a7.84,7.84,0,0,0-.3-2.2,4.17,4.17,0,0,0-.9-1.6,3.26,3.26,0,0,0-1.4-1,5.92,5.92,0,0,0-1.9-.4,4.45,4.45,0,0,0-2,.4,4.12,4.12,0,0,0-1.5,1,4.3,4.3,0,0,0-.9,1.6,8.22,8.22,0,0,0,0,4.4,4.3,4.3,0,0,0,.9,1.6,4,4,0,0,0,1.5,1,6,6,0,0,0,2,.4,3.79,3.79,0,0,0,1.9-.4,3.05,3.05,0,0,0,1.4-1,4.17,4.17,0,0,0,.9-1.6A7.84,7.84,0,0,0,74.6,108.81Z"/><path class="cls-1" d="M95,103.91a.78.78,0,0,1-.4.4.87.87,0,0,1-.5.1,1.42,1.42,0,0,1-.6-.2,6,6,0,0,1-.7-.4,7.25,7.25,0,0,0-.9-.4,3.69,3.69,0,0,0-1.1-.2,2.56,2.56,0,0,0-1.6.5,1.7,1.7,0,0,0-.5,1.2,1.12,1.12,0,0,0,.3.8,6.68,6.68,0,0,0,.8.6,3.4,3.4,0,0,0,1.2.4c.4.1.9.3,1.3.4a7.54,7.54,0,0,1,1.3.6,8.64,8.64,0,0,1,1.2.8,3.46,3.46,0,0,1,.8,1.2,5.35,5.35,0,0,1-.1,3.8,5,5,0,0,1-1.1,1.7,5.73,5.73,0,0,1-1.8,1.2,6.66,6.66,0,0,1-2.5.4,9.59,9.59,0,0,1-1.6-.2c-.5-.1-1-.3-1.5-.4a6.32,6.32,0,0,1-1.4-.7,10.53,10.53,0,0,1-1.1-.9l1.1-1.8a1.5,1.5,0,0,1,.4-.3.74.74,0,0,1,.5-.1,1.94,1.94,0,0,1,.7.2,8.24,8.24,0,0,1,.8.5,9.33,9.33,0,0,0,1,.5,5.18,5.18,0,0,0,1.3.2,2.56,2.56,0,0,0,1.6-.5,1.66,1.66,0,0,0,.6-1.4,1.19,1.19,0,0,0-.3-.9,6.68,6.68,0,0,0-.8-.6,3.4,3.4,0,0,0-1.2-.4c-.4-.1-.9-.3-1.3-.4a4.79,4.79,0,0,1-1.3-.5,8.64,8.64,0,0,1-1.2-.8,4,4,0,0,1-.8-1.3,5.56,5.56,0,0,1-.3-1.9,4,4,0,0,1,.4-1.8,4.21,4.21,0,0,1,1.1-1.6,5.46,5.46,0,0,1,1.8-1.1,6.12,6.12,0,0,1,2.4-.4,7.57,7.57,0,0,1,1.5.1l1.4.3a6.72,6.72,0,0,1,1.2.6,8.55,8.55,0,0,1,1,.7Z"/><polygon class="cls-1" points="102.2 103.51 102.2 107.31 107.4 107.31 107.4 110.11 102.2 110.11 102.2 114.01 108.9 114.01 108.9 116.91 98.3 116.91 98.3 100.51 108.9 100.51 108.9 103.41 102.2 103.41 102.2 103.51"/><path class="cls-1" d="M124.7,117h-3.4a1.49,1.49,0,0,1-1.4-.7l-2.7-4.8c-.1-.2-.3-.4-.4-.4a1.51,1.51,0,0,0-.7-.1h-1v6.08h-3.8v-16.4h5.3a8.7,8.7,0,0,1,3,.4,5.38,5.38,0,0,1,2,1,4.48,4.48,0,0,1,1.2,1.5,5.92,5.92,0,0,1,.4,1.9,7.52,7.52,0,0,1-.2,1.5,5.12,5.12,0,0,1-.6,1.3,5.5,5.5,0,0,1-1,1.1,6.68,6.68,0,0,1-1.4.8,2.88,2.88,0,0,1,.7.5,4.44,4.44,0,0,1,.6.7Zm-8-8.7a4.41,4.41,0,0,0,1.3-.2,1.87,1.87,0,0,0,.9-.5,2.3,2.3,0,0,0,.5-.8,3.12,3.12,0,0,0,.2-1,2.05,2.05,0,0,0-.7-1.7,3.38,3.38,0,0,0-2.2-.6h-1.6v4.9h1.6Z"/><path class="cls-1" d="M140.22,100.61l-6.6,16.4h-3.4l-6.6-16.4h3.1a2,2,0,0,1,.8.2,2.62,2.62,0,0,1,.5.6l3.2,8.8c.1.4.3.8.4,1.3s.3.9.4,1.4a5.74,5.74,0,0,1,.4-1.4c.1-.5.3-.9.4-1.3l3.2-8.8a2.17,2.17,0,0,1,.4-.6,1.12,1.12,0,0,1,.8-.3h3Z"/><polygon class="cls-1" points="145.4 117.01 141.6 117.01 141.6 100.61 145.4 100.61 145.4 117.01"/><path class="cls-1" d="M159.6,112.71a.37.37,0,0,1,.3.1c.1,0,.2.1.3.2l1.5,1.6a7,7,0,0,1-2.5,2,7.81,7.81,0,0,1-3.5.7,8.47,8.47,0,0,1-3.3-.6,6.5,6.5,0,0,1-2.5-1.8,7.13,7.13,0,0,1-1.6-2.7,8.85,8.85,0,0,1-.6-3.3,9.86,9.86,0,0,1,.6-3.4,7.58,7.58,0,0,1,4.3-4.3,8.55,8.55,0,0,1,5-.4c.5.1,1.1.3,1.5.4a5.44,5.44,0,0,1,1.3.7,12,12,0,0,1,1.1.9l-1.3,1.7-.3.3a.74.74,0,0,1-.5.1.58.58,0,0,1-.4-.1c-.1-.1-.2-.1-.4-.2a1.38,1.38,0,0,1-.4-.3l-.6-.3a2,2,0,0,0-.8-.2,3.07,3.07,0,0,0-1-.1,4.69,4.69,0,0,0-1.7.3,4.49,4.49,0,0,0-1.4,1,4.3,4.3,0,0,0-.9,1.6,8.22,8.22,0,0,0,0,4.4,3.45,3.45,0,0,0,.9,1.6,4.49,4.49,0,0,0,1.4,1,4.69,4.69,0,0,0,1.7.3,2.5,2.5,0,0,0,.9-.1,1.86,1.86,0,0,0,.8-.2c.2-.1.5-.2.7-.3s.4-.3.7-.5c.1-.1.2-.1.3-.2C159.4,112.81,159.5,112.71,159.6,112.71Z"/><polygon class="cls-1" points="167.1 103.51 167.1 107.31 172.3 107.31 172.3 110.11 167.1 110.11 167.1 114.01 173.8 114.01 173.8 116.91 163.2 116.91 163.2 100.51 173.8 100.51 173.8 103.41 167.1 103.41 167.1 103.51"/><path class="cls-1" d="M185.3,103.91a.78.78,0,0,1-.4.4.74.74,0,0,1-.5.1,1.42,1.42,0,0,1-.6-.2,6,6,0,0,1-.7-.4,7.25,7.25,0,0,0-.9-.4,3.69,3.69,0,0,0-1.1-.2,2.56,2.56,0,0,0-1.6.5,1.7,1.7,0,0,0-.5,1.2,1.12,1.12,0,0,0,.3.8,6.68,6.68,0,0,0,.8.6,3.4,3.4,0,0,0,1.2.4c.4.1.9.3,1.3.4a7.54,7.54,0,0,1,1.3.6,8.64,8.64,0,0,1,1.2.8,3.46,3.46,0,0,1,.8,1.2,5.35,5.35,0,0,1-.1,3.8,5,5,0,0,1-1.1,1.7,5.73,5.73,0,0,1-1.8,1.2,6.66,6.66,0,0,1-2.5.4,9.59,9.59,0,0,1-1.6-.2c-.5-.1-1-.3-1.5-.4a6.32,6.32,0,0,1-1.4-.7,10.53,10.53,0,0,1-1.1-.9l1.1-1.8a1.5,1.5,0,0,1,.4-.3.74.74,0,0,1,.5-.1,1.94,1.94,0,0,1,.7.2,8.24,8.24,0,0,1,.8.5,9.33,9.33,0,0,0,1,.5,5.18,5.18,0,0,0,1.3.2,2.56,2.56,0,0,0,1.6-.5,1.66,1.66,0,0,0,.6-1.4,1.19,1.19,0,0,0-.3-.9,6.68,6.68,0,0,0-.8-.6,3.4,3.4,0,0,0-1.2-.4c-.4-.1-.9-.3-1.3-.4a4.79,4.79,0,0,1-1.3-.5,8.64,8.64,0,0,1-1.2-.8,4,4,0,0,1-.8-1.3,5.56,5.56,0,0,1-.3-1.9,4,4,0,0,1,.4-1.8,4.21,4.21,0,0,1,1.1-1.6,5.46,5.46,0,0,1,1.8-1.1,6.12,6.12,0,0,1,2.4-.4,7.57,7.57,0,0,1,1.5.1l1.4.3a6.72,6.72,0,0,1,1.2.6,8.55,8.55,0,0,1,1,.7Z"/></g><path class="cls-1" d="M1.13,74.38a.84.84,0,0,1,.77-.83,9.36,9.36,0,0,1,2.3.17,13.33,13.33,0,0,0,2,.09,12.44,12.44,0,0,0,2.86.06,13,13,0,0,1,4.71-.64,35.28,35.28,0,0,0,5.63,0,9,9,0,0,0,1.79-.15,1.18,1.18,0,0,1,.67,0,1,1,0,0,0,.87,0,1,1,0,0,1,1.18,0,3.2,3.2,0,0,0,2,.2c1,0,1.93-.13,2.92-.08.75,0,4.47.23,5.26.14A9,9,0,0,1,36.21,73a2.4,2.4,0,0,0,1.71-.1c.16-.11.39,0,.59.1.77.21,1.56-.12,2.35,0,.11,0,2.47.44,3.16.13.18-.08.45-.21.57-.14.6.33,1.1-.07,1.63-.1a18.38,18.38,0,0,0,3.68-.62c.2-.1.46,0,.62,0a9.75,9.75,0,0,1,2.29,0,5.87,5.87,0,0,1,1.91.25,1.77,1.77,0,0,0,1.2,0,1.36,1.36,0,0,1,1.24.09c.21.13.45.24.66,0,.61-.57,1.43-.28,2.13-.54.47-.17,2.21.37,2.8.32s1.46-.13,2-.23a.7.7,0,0,0,.4-.28c.25-.27.48-.49.68,0A.2.2,0,0,0,66,72c.66-.06,1.33.32,2,0a.55.55,0,0,1,.6.08c.48.25,1,.58,1.56.21.12-.08.24,0,.37,0a1.26,1.26,0,0,0,.72,0,2.87,2.87,0,0,1,2-.06,1.8,1.8,0,0,0,1-.12,3.39,3.39,0,0,1,1.3-.26,1.59,1.59,0,0,0,1.65-.8c.17-.32.44-.29.64,0a1.44,1.44,0,0,0,1.75.44c.34-.12.71-.25.86.23s3,.34,3.23-.15a8.8,8.8,0,0,1,1-1.8.55.55,0,0,1,.57.14.63.63,0,0,0,.87.18.77.77,0,0,0,.18-.18c.11-.12.23-.2.39-.11s.14.18.09.34a.86.86,0,0,0,.37,1.15l.13,0a3.89,3.89,0,0,0,1.31.19c.14,0,.46-.1.49-.3a1.28,1.28,0,0,0-.35-1c-.45-.47-.46-.47.15-.84.16-.1.11-.23.1-.35a.54.54,0,0,1,.31-.59c.3-.14.46,0,.65.16l.62.49a.2.2,0,0,0,.25,0c.12-.06.06-.15,0-.24-.12-.26-.09-.51.18-.61s.35.2.45.38,0,.21.23.19c.56-.06.8.17.8.79,0,.38,7.82-.44,9.77-1.4a2.14,2.14,0,0,1,1.28-.33,2.33,2.33,0,0,0,1.19-.23,33.47,33.47,0,0,1,4.07-.86,22.65,22.65,0,0,0,4-1.34,4.36,4.36,0,0,1,1.19-.26,8.9,8.9,0,0,0,2.33-.94s.08,0,.1,0c.33-.84,1-1,1.83-1a3.63,3.63,0,0,0,1.75-1,3.78,3.78,0,0,1,1.83-.91,5.16,5.16,0,0,0,1-.42c2.1-.73,4.11-1.72,6.16-2.6l4.43-1.94a2.27,2.27,0,0,0,.72-.42,10.93,10.93,0,0,1,2.67-1.49,7.46,7.46,0,0,0,2.36-1.48,24.09,24.09,0,0,1,1.78-1.72,3.31,3.31,0,0,1,2.45-1.11,4.09,4.09,0,0,0,3-1.08,25.58,25.58,0,0,1,2.12-1.45A1.45,1.45,0,0,0,149,47a2,2,0,0,1,2-1.49c.59,0,1-.51,1.44-.8a12.29,12.29,0,0,1,2.45-1.31,2,2,0,0,0,.56-.43,12.87,12.87,0,0,0,3-2.75,5.59,5.59,0,0,0,.87-1.23c.12-.33.51-.52.81-.68.66-.34,1.18-.86,1.79-1.24.9-.56,1.75-1.19,2.6-1.82S166.18,34,167,33.3s1.71-1.66,2.57-2.48a35.91,35.91,0,0,1,4.28-3.71,8.87,8.87,0,0,0,1.33-1.34c.21-.21.41-.44.62-.65a.6.6,0,0,1,.64-.08c.23.06.2.28.21.47,0,.85,0,.84.87.75.23,0,.52-.11.67.16A.54.54,0,0,1,178,27c-.8.93-1.3,2.12-2.5,2.67a1.87,1.87,0,0,0-.61.58,12.5,12.5,0,0,1-1.36,1.8c.73-.35,1.65-.07,2.2-.91.43-.65,1.12-1.1,1.61-1.73.31-.4.71-.17,1.07,0s.09.43,0,.67a4.46,4.46,0,0,1-.91,1.39c-.78,1-1.62,2-2.5,2.94a26.06,26.06,0,0,0-2.88,3.24,1.81,1.81,0,0,1-.58.52,4.06,4.06,0,0,0-1.15,1.51c-.11.19,0,.28.16.33a.45.45,0,0,0,.28,0c1.05-.61,2.44-.62,3.14-1.87.46-.82,1.38-1.17,2.1-1.72a5,5,0,0,0,1.14-1.06,10,10,0,0,1,2-1.89c.49-.38.83-.94,1.45-1.14.24-.07.47-.23.68,0s.1.47,0,.71c-.34.59-.65,1.19-1,1.77-.19.32-.13.44.23.54.55.14.63.38.39.92a1.58,1.58,0,0,1-.36.56,1.25,1.25,0,0,0-.49.79,1.09,1.09,0,0,1-.64.73.79.79,0,0,1-1.1-.19l-.05-.08c-.43-.59-.62-.64-1-.24-.18.19-.4.4-.29.68s.37.34.65.36.36,0,.42.11c.46.72.85.13,1.28,0,.78-.3,1.17-1.12,2-1.42.23-.08.44-.16.62,0s0,.41-.12.58a1.82,1.82,0,0,1-.36.42c-1.47,1.36-3,2.7-4.4,4.07-.86.82-1.48,1.83-2.3,2.7a10.27,10.27,0,0,1-2,1.72,27.4,27.4,0,0,0-3,2.37,18.73,18.73,0,0,1-3.4,2.25,13.25,13.25,0,0,0-3,2.2,11.27,11.27,0,0,0-1.18,1.48A5.19,5.19,0,0,1,160.17,57a17.62,17.62,0,0,0-4,2.79,18.66,18.66,0,0,1-3.45,2.33,1.75,1.75,0,0,1-.81.19,2.22,2.22,0,0,0-1.85.78,9.09,9.09,0,0,1-2.15,1.49c-.89.61-1.85,1.12-2.77,1.7a1.36,1.36,0,0,1-.94.23,1.18,1.18,0,0,0-1.41.85c-.28.69-2.6.9-3,1.15-1.27.76-2.5,1.59-3.79,2.34-1.09.63-2.28,1.06-3.35,1.74a1.85,1.85,0,0,1-.93.16,5.85,5.85,0,0,0-2.73,1.2,30,30,0,0,1-3,1.36c-.57.29-1.19.46-1.75.76a5.07,5.07,0,0,1-1.63.36,7.19,7.19,0,0,0-2.69,1.17,24.89,24.89,0,0,1-5.9,2,8.72,8.72,0,0,0-2.67.92,1.32,1.32,0,0,1-.65.14c-.88.07-1.48.84-2.36.92a2.14,2.14,0,0,0-.61.06,21.14,21.14,0,0,0-5.1,1,14.17,14.17,0,0,1-2.94.71,9.62,9.62,0,0,0-1.28.33c-.9.22-1.88,0-2.74.44-.57.3-3.06.28-3.66.53a9.65,9.65,0,0,1-2.65,1,8.45,8.45,0,0,1-1.51.08,16,16,0,0,0-4.62.41,14.28,14.28,0,0,1-3.06.27,24.93,24.93,0,0,1-2.73.24c-1.43-.11-2.85.24-4.28.26-.87,0-1.77.27-2.64.3a10.28,10.28,0,0,1-2,.1,6.85,6.85,0,0,0-2.39,0,1.8,1.8,0,0,1-.73,0,4.23,4.23,0,0,0-1.7-.09,6.13,6.13,0,0,1-1.48-.12,1.69,1.69,0,0,0-.86.13,3,3,0,0,1-1.78.15,1.35,1.35,0,0,0-.84.12,31.27,31.27,0,0,1-5.3-.12,9.43,9.43,0,0,0-2.8.24c-1.54,0-3.07.18-4.6.22a33.13,33.13,0,0,0-4.67.23c-.53.09-1-.21-1.54-.23a57.78,57.78,0,0,0-6.17.28c-2,.14-4-.22-5.92-.26a7.64,7.64,0,0,0-1.51.07,9.74,9.74,0,0,1-1.87,0,17.49,17.49,0,0,0-3.47-.1,9.54,9.54,0,0,1-1.69,0,16.66,16.66,0,0,0-3.31.09c-.35.07-.66-.11-1-.11a13.52,13.52,0,0,0-1.68.1A18.13,18.13,0,0,1,10,87.83a13.19,13.19,0,0,0-1.54,0A34.17,34.17,0,0,1,5,87.54C4,87.49,3,87.36,2,87.37c-.26,0-.64.17-.75-.19m156-40.76a2.44,2.44,0,0,0,1.51-.49,4.81,4.81,0,0,0,1.86-1.51,7.24,7.24,0,0,1,1-1.28.77.77,0,0,0,.22-.32,1.28,1.28,0,0,1,1-.91c.22,0,.43-.13.32-.4a.42.42,0,0,0-.52-.29h0a2.69,2.69,0,0,0-1,.66,8.54,8.54,0,0,1-2.78,2.5A3.93,3.93,0,0,0,157.07,46c-.07.12-.29.19-.21.36s.28,0,.45,0Zm6.91-6.08a2.59,2.59,0,0,0,1.22-.51.27.27,0,0,0,.1-.39.27.27,0,0,0-.38,0l0,0c-.23.23-.64.35-.89.82Zm6.13-5a.65.65,0,0,0,.45.79.16.16,0,0,0,.22-.05.17.17,0,0,0,0-.17c-.12-.33-.08-.8-.51-.9-.26-.14-.11.16-.13.24Zm-3.28,3c0-.26-.13-.3-.29-.28a.45.45,0,0,0-.4.4c0,.25.21.23.35.24a.33.33,0,0,0,.4-.25.34.34,0,0,0,0-.22Zm7.79,2.6c0-.13-.09-.24-.15-.21s-.43.14-.51.38c0,.06,0,.16.12.13s.49-.15.57-.41ZM91,69.52c.11,0,.23,0,.23-.16s-.12-.16-.23-.16-.24,0-.26.11.15.1.29.1Z"/><path class="cls-1" d="M1.22,52.09c0-.15,1,0,1.25.23.72.48,4.31.26,5,.22a10.11,10.11,0,0,1,2.69.14,3.81,3.81,0,0,0,1.26.07,8.26,8.26,0,0,1,1.72.06,20,20,0,0,0,4.37,0,9.31,9.31,0,0,0,1.93.18,1.07,1.07,0,0,1,.84-.08,1.83,1.83,0,0,0,1.11-.09,4.9,4.9,0,0,1,2.68-.25.53.53,0,0,0,.39,0c.64-.43,1.2-.06,1.78.16h.1c1.18,0,2.36.21,3.54.12a12.29,12.29,0,0,0,1.71-.21c.37-.06,1.26-.37,1.27-.21a.8.8,0,0,1,.91,0,1.07,1.07,0,0,0,1.19,0,.83.83,0,0,1,.88.1.59.59,0,0,0,.83,0,.27.27,0,0,0,.07-.08.67.67,0,0,1,.83-.23.87.87,0,0,0,1-.06.42.42,0,0,1,.27,0c1,.28,2-.12,3,.29a.5.5,0,0,0,.38,0c.53-.34,1-.06,1.46.11a2.26,2.26,0,0,0,1.54,0c.35-.11.37-.45.74-.66a1.85,1.85,0,0,1,1.23,0c.32,0,.26,0,.39-.12a8.92,8.92,0,0,1,3.13-.16c.58.28,1.13.66,1.64.5s2.91,0,3.71-.06a1.1,1.1,0,0,1,.51,0,2.14,2.14,0,0,0,1.75-.12,7,7,0,0,1,1.93-.22,7.62,7.62,0,0,0,1.65-.22c.47-.14,1,.25,1.45-.11h.06a1.14,1.14,0,0,0,.63-.1,1,1,0,0,1,.34,0,7.51,7.51,0,0,0,3.31-.62,2.41,2.41,0,0,1,1-.09,15.34,15.34,0,0,0,3.83,0,48.5,48.5,0,0,0,5.59-1.12,12.74,12.74,0,0,1,2.64-.79c2-.24,3.85-1.19,5.83-1.57a6.43,6.43,0,0,0,1.73-.73c.68-.35,1.41-.43,2.09-.74,1.71-.8,3.52-1.34,5.19-2.27,2-1.12,4.27-1.78,6.35-2.81a16.49,16.49,0,0,0,3.2-1.86,5.17,5.17,0,0,1,1.83-1.12,2.94,2.94,0,0,0,1.53-1.13A6.57,6.57,0,0,1,111,34.64a5,5,0,0,0,2.18-1.55,2.47,2.47,0,0,1,1.1-.84c1.05-.46,1.83-1.34,2.84-1.86.36-.19.44-.65.71-.94a8.76,8.76,0,0,1,1.84-1.36,1.5,1.5,0,0,0,.51-.43,2.09,2.09,0,0,1,1.28-.89.39.39,0,0,0,.26-.28,4,4,0,0,1,1.36-1.61,46.62,46.62,0,0,0,4.19-4.36,8,8,0,0,1,1.52-1,8.1,8.1,0,0,0,1.09-.84,13.06,13.06,0,0,0,2.31-2.87c.22-.45.65-.65,1-1a12.59,12.59,0,0,0,1.4-2c.38-.49.92-.77,1.27-1.3.75-1.1,1.86-1.91,2.59-3,.44-.68,1.17-1.11,1.62-1.8a17.14,17.14,0,0,1,1.61-2.35c.58-.64.87-1.5,1.6-2a8.1,8.1,0,0,0,.9-1.27c.26-.29.56-.54.84-.8s.35-.39.62-.18a.52.52,0,0,1,.11.73l0,0c-.43.66-.86,1.32-1.33,2a7.18,7.18,0,0,0-.85,1.44c-.3.71-.85,1.23-1.19,1.89a6.78,6.78,0,0,0-.94,2,.65.65,0,0,0,.31.76.69.69,0,0,1,.38.74c-.06.47.17.45.49.28a3.4,3.4,0,0,0,1-1,10.92,10.92,0,0,1,1.89-1.83c.29-.22.59-.46.76.19.12.44.62.74.48,1.31a4.3,4.3,0,0,0-.29.78c0,.39.13.58.53.53a4.54,4.54,0,0,0,2.87-1.52c.13-.15.26-.35.48-.37.46,0,.7-.39,1-.66s.56-.7.91-.46.1.77-.11,1.06c-.48.67-.44,1.54-1,2.18a.17.17,0,0,0,0,.24h0a.2.2,0,0,0,.28,0l0,0c.28-.76,1-.79,1.6-.91a.56.56,0,0,0,.33-.21c.47-.62,1.09-.44,1.68-.27.42.12.51.4.27.82a9.7,9.7,0,0,1-2.08,2.39,1.69,1.69,0,0,1-1.25.44.68.68,0,0,0-.67.34,7.71,7.71,0,0,1-1.86,2.38,1.76,1.76,0,0,0-.41,1.55,2.17,2.17,0,0,1-.7,1.76,4.35,4.35,0,0,0-1,1.29,8.62,8.62,0,0,1-2.14,2.44,4.73,4.73,0,0,0-.82.91c-.27.49-.66.89-.92,1.39a3.09,3.09,0,0,1-1.67,1.49,1.48,1.48,0,0,0-1,1,2.65,2.65,0,0,1-1,1.24,11.69,11.69,0,0,0-2.42,3c-.08.13-.11.33-.22.39-.7.34-1,1.09-1.67,1.49a1.49,1.49,0,0,0-.41.38,7.29,7.29,0,0,1-2.53,2.25c-.88.53-1.63,1.22-2.48,1.78a3.57,3.57,0,0,1-.86.41,1.38,1.38,0,0,0-.78.41c-.56.78-1.48,1.1-2.12,1.78-.3.33-.85.33-1.15.77a6.27,6.27,0,0,1-2.19,2,7.55,7.55,0,0,0-1.2,1.13,12,12,0,0,1-2,1.54,35.76,35.76,0,0,0-3,2.36c-1.18.85-2.55,1.35-3.75,2.14a10.88,10.88,0,0,1-2.14,1.18,9.71,9.71,0,0,0-2.13,1.2c-1.18.79-2.43,1.48-3.67,2.18-.82.47-1.66.89-2.5,1.32a1.15,1.15,0,0,0-.57.6,6.81,6.81,0,0,1-1.2,1.2c-.25.47-1.1,1.51-1.26,1.38-.35-.27-.57-.3-.86.13a.72.72,0,0,1-1,.34.57.57,0,0,1-.13-.08.58.58,0,0,0-.63-.05c-.71.34-1.58.14-2.25.69A4.15,4.15,0,0,1,93,61.46h0a2.39,2.39,0,0,1-.65.11,8.45,8.45,0,0,0-2,.27c-.4,0-3.62.44-4.22,1-.28.28-.54.5-1,.21-.14-.11-.31,0-.48,0a8.32,8.32,0,0,1-2.92.56,3,3,0,0,0-2,.8c-.3.27-.57.32-.83.08s-.47-.13-.68.05a1.16,1.16,0,0,1-1.33.23,28.31,28.31,0,0,1-3.06.31,7.91,7.91,0,0,0-2.27-.3,1,1,0,0,0-.26.09,4.65,4.65,0,0,1-2.4,0,4,4,0,0,0-.42.09,36.54,36.54,0,0,1-5.51.68.69.69,0,0,0-.41.15,1.07,1.07,0,0,1-1.19.16c-.32-.2-.6,0-.86,0-.59.14-1.24-.08-1.79.3a.42.42,0,0,1-.48-.06c-.38-.35-.73-.19-1.1,0a1.46,1.46,0,0,1-.87.18h-.33c-.75.64-1.67.44-2.52.54a1.27,1.27,0,0,1-.67,0,.94.94,0,0,0-1,.17.69.69,0,0,1-.82.1,1,1,0,0,0-1,0,.91.91,0,0,1-.77,0,1.17,1.17,0,0,0-1.11.16,1,1,0,0,1-1.1,0c-.23-.13-.48-.22-.72.1s-.51.12-.75,0a.72.72,0,0,0-1,.14.67.67,0,0,1-.87.09,1.68,1.68,0,0,0-1.3-.08c-.35.11-.65-.09-1-.14a2.31,2.31,0,0,0-2.46.76.54.54,0,0,1-.71.14,3.45,3.45,0,0,0-2.42-.51c-.23.06-.42-.12-.61-.25a1.91,1.91,0,0,0-1.86-.2.21.21,0,0,1-.11,0c-1-.34-2,.68-3.1.14a.44.44,0,0,0-.31.09,1.61,1.61,0,0,1-1.42,0c-.31-.09-.61-.21-.86.1-.07.08-.17.12-.23,0-.25-.37-.57-.33-.93-.23s-.42-.09-.59-.25-.63-.48-1-.16a.4.4,0,0,1-.42,0,4.61,4.61,0,0,0-3,.11c-.33.09-.53.41-1,.16-.16-.1-.49,0-.73-.16a.31.31,0,0,0-.1-.05c-.94.21-1.91,0-2.84.22-.18,0-.36.15-.54.1a1,1,0,0,0-1.13.19c-.13.12-.42.08-.64,0A6.22,6.22,0,0,0,12,67.31c-1-.14-2,.31-2.93-.33-.34-.23-.84-.11-1.29-.07-1.11.09-2.22.07-3.33.14a6.58,6.58,0,0,1-1.88,0,1,1,0,0,0-.54.09.81.81,0,0,1-1.07-.42l0-.13M141.56,11.16c0-.16,0-.28-.12-.33a.23.23,0,0,0-.29.12c-.19.37-.63.5-.78.94a.68.68,0,0,1-.75.39c-.33,0-.43-.25-.45-.55a.22.22,0,0,0-.24-.22h0a1.07,1.07,0,0,0-.67.64c-.13.24-.32.5-.06.77a1,1,0,0,1,.24,1.18.32.32,0,0,0,.11.44.32.32,0,0,0,.37,0c.43-.25.93-.45,1.09-1a3.18,3.18,0,0,1,.75-1.16,3,3,0,0,0,.88-1.19Zm3,3.61a.53.53,0,0,0-.65.39.5.5,0,0,0,0,.12c-.07.37-.13.73-.19,1.09a.41.41,0,0,0,.08.31.26.26,0,0,0,.3-.08,4.54,4.54,0,0,0,1-1.05c.34-.46.14-.78-.46-.78ZM136,25.88c.35-.15.74-.17.92-.59s.34-.93.91-1a.24.24,0,0,0,.14-.3l0,0c-.09-.15-.22-.1-.34,0a5.59,5.59,0,0,0-.89.57c-.29.28-.68.46-.9.82s-.05.41.24.53Zm8.09-15.5c0,.1.12.11.21.12a.52.52,0,0,0,.52-.25c0-.06.08-.15,0-.19s-.32.11-.49.15-.17,0-.18.17Z"/><path class="cls-1" d="M1.1,32.43a.26.26,0,0,1,.33.16s0,0,0,0,.18.35.26.13c.17-.49.5-.29.72-.19.62.26,7.37,0,7.88.16a1.74,1.74,0,0,0,.93-.08c.76-.21,3.36.57,3.82.64.82.13,5.45.15,5.64.09a1.7,1.7,0,0,1,1,0,1.89,1.89,0,0,0,1.42-.07,2,2,0,0,1,1.56,0,1.4,1.4,0,0,0,.76,0,12.61,12.61,0,0,1,1.93-.26,1.38,1.38,0,0,1,.87.16,2.72,2.72,0,0,0,1.76.14c.61-.11,1.21,0,1.81-.06.82-.07,1.65,0,2.48-.13.33,0,.65.14,1,.12,1.19-.07,2.4.13,3.53-.45a1.8,1.8,0,0,1,1-.13,10.42,10.42,0,0,0,2.94-.45c.81-.12,1.64-.17,2.44-.29a22.09,22.09,0,0,0,2.44-.2,5.55,5.55,0,0,1,1.93-.4,4.87,4.87,0,0,0,2.87-.59,2.66,2.66,0,0,1,1.15-.2A7.31,7.31,0,0,0,56,30.1a6.08,6.08,0,0,1,2.17-.58,2.33,2.33,0,0,0,.92-.34,15.18,15.18,0,0,1,4.52-1.92,13.59,13.59,0,0,0,1.51-.67,5.58,5.58,0,0,1,.69-.23,3,3,0,0,0,1.66-.82c.48-.46,1.19-.49,1.73-.86,1.47-1,3.07-1.77,4.54-2.78a13.92,13.92,0,0,1,2.28-1.15,32.91,32.91,0,0,0,3.8-2.35A9.72,9.72,0,0,0,81,17.33c1-.88,2.52-1.13,3.29-2.36a.51.51,0,0,1,.26-.22,4.87,4.87,0,0,0,2.53-2A2.19,2.19,0,0,1,88.49,12a1.4,1.4,0,0,0,1.13-.75,3.14,3.14,0,0,1,1.7-1.38.62.62,0,0,1,.53.07c.37,0,.72,0,.65-.49a.65.65,0,0,1,.44-.79h0a1,1,0,0,1,1.09.2,2.16,2.16,0,0,0,1,.68.42.42,0,0,1,.31.51.31.31,0,0,1-.06.13,5.34,5.34,0,0,1-1.27,2c-.68.57-1.11,1.43-1.82,2A3.45,3.45,0,0,0,91,15.32a4.8,4.8,0,0,0,2.31-1c.78-.7,1.29-1.66,2.26-2.18a3.57,3.57,0,0,0,1.12-1,.3.3,0,0,1,.08-.08c.26-.25.61-.56.9-.39s-.15.46-.23.71-.35.7.27.85a.4.4,0,0,0,.5-.2,4.09,4.09,0,0,1,1.24-1.28A3,3,0,0,0,100,10a18.86,18.86,0,0,1,2.26-3,5.78,5.78,0,0,0,1-1.15c.14-.21.49-.5.64-.29.27.37-.14,1-.53,1.37-.07.09-.26.17-.13.31s.23,0,.34-.07a2.08,2.08,0,0,1,1.9-.29.84.84,0,0,1,.66.58c.11.39.36.4.68.28A1.75,1.75,0,0,0,108,6.42a.31.31,0,0,1,.34-.28l.08,0a.26.26,0,0,1,.16.32.36.36,0,0,1-.07.1c-.81.8-.91,2-1.78,2.82-.19.17-.39.41-.62.46a.93.93,0,0,0-.81,1,.9.9,0,0,1-.45.72c-.77.41-1.2,1.22-2,1.63-.41.21-.35.83-.72,1.17A4.41,4.41,0,0,0,100.65,17a.87.87,0,0,1-.51.65,2,2,0,0,0-1.21,1.65,1.14,1.14,0,0,1-.75.79,6.59,6.59,0,0,0-3.09,2.72,2.14,2.14,0,0,1-.72.62,5.63,5.63,0,0,0-1.43,1.49,1.59,1.59,0,0,1-.49.44,11.94,11.94,0,0,0-3.51,3.28,2.6,2.6,0,0,1-1,.8,5.05,5.05,0,0,0-2.15,1.67.77.77,0,0,1-.4.29,11.78,11.78,0,0,0-3.49,2c-.66.43-3.69,3.3-4,3.55a13.55,13.55,0,0,0-2.09,1.43.38.38,0,0,1-.24.13,3.77,3.77,0,0,0-1.89.92c-.67.62-.78.52-1.29.39a18.94,18.94,0,0,0-2.71.34,1.11,1.11,0,0,0-.54.27,7.43,7.43,0,0,1-2.28,1.11.88.88,0,0,0-.35.17,52.66,52.66,0,0,1-5.36,1.51A4.26,4.26,0,0,0,59,44c-.07,0-3.22.33-3.36.39-1,.39-4.3,1-4.8,1.38a16.7,16.7,0,0,0-2.52.67,2.08,2.08,0,0,1-.72.26c-1.06.18-2.2-.11-3.22.43a14.08,14.08,0,0,1-2.25,0,9.66,9.66,0,0,0-2.63.18c-.55.28-3.49,0-4.32.35-.14.05-1.08-.24-1.43,0-.18.1-1.37.16-2,.38a20.7,20.7,0,0,1-4.09-.19c-.89-.4-3.34.4-4,.32a22,22,0,0,0-2.3-.1c-.88.13-4.06-.22-4.76-.13a1.06,1.06,0,0,1-.61,0,19.05,19.05,0,0,0-3.68-.5,25.8,25.8,0,0,1-3.29,0,26.68,26.68,0,0,0-3.34-.26A2.68,2.68,0,0,1,4.48,47a3,3,0,0,0-1-.1,2.22,2.22,0,0,1-.63,0,2.74,2.74,0,0,0-1.14,0,.59.59,0,0,1-.63-.22"/><path class="cls-1" d="M99.91,3.51a.66.66,0,0,1-.19.86,2.53,2.53,0,0,0-.85,1.32c-.06.19-.17.43-.41.35s-.32-.31-.16-.59A7.71,7.71,0,0,1,99.91,3.51Z"/><path class="cls-1" d="M114.91,57.23a.27.27,0,0,1-.16.35h0a.77.77,0,0,1-.72-.13,4.21,4.21,0,0,1-.58-.74.27.27,0,0,1,0-.38l0,0c.1-.09.21-.21.33-.09a3.73,3.73,0,0,0,1,.67A.29.29,0,0,1,114.91,57.23Z"/><path class="cls-1" d="M97,7.87c0,.46-.26.7-.67.86-.19.08-.41.14-.52,0a.52.52,0,0,1,0-.63,2.07,2.07,0,0,1,.65-.6C96.87,7.26,97,7.3,97,7.87Z"/><path class="cls-1" d="M26.16,49.38a2.68,2.68,0,0,1,1.09.94.35.35,0,0,1-.13.4c-.13.07-.33.12-.4,0-.16-.32-.48-.39-.73-.57a.44.44,0,0,1-.19-.54.3.3,0,0,1,.36-.23Z"/><path class="cls-1" d="M35.86,69.84c-.17.35-.33.71-.52,1.06-.06.1-.19.17-.28,0s-.34-.37-.18-.59a3.6,3.6,0,0,1,.66-.69C35.67,69.56,35.83,69.6,35.86,69.84Z"/><path class="cls-1" d="M94.22,68c0-.26.09-.43.35-.4s.48.05.45.37-.18.54-.47.53a.41.41,0,0,1-.33-.49Z"/><path class="cls-1" d="M34,50.74a.61.61,0,0,1-.53.54.29.29,0,0,1-.28-.28.17.17,0,0,1,0-.07.57.57,0,0,1,.55-.53C34,50.37,34.07,50.46,34,50.74Z"/><path class="cls-1" d="M53.84,49.73c-.06.21-.16.43-.39.42a.38.38,0,0,1-.41-.34v-.09c0-.26.15-.34.39-.35S53.76,49.55,53.84,49.73Z"/><path class="cls-1" d="M116.62,55.32c-.05.26-.21.31-.42.32s-.31-.08-.29-.3a.36.36,0,0,1,.42-.3.37.37,0,0,1,.29.3Z"/><path class="cls-1" d="M103.27,61.09c.11,0,.26,0,.24.27s-.11.35-.35.35-.33-.09-.34-.29S103,61.09,103.27,61.09Z"/><path class="cls-1" d="M103.61,64.65a.46.46,0,0,1,.23.4c0,.23-.14.33-.36.32s-.27-.18-.26-.35S103.42,64.73,103.61,64.65Z"/><path class="cls-1" d="M114.54,55.27a.26.26,0,0,1,.26.32.34.34,0,0,1-.36.27c-.19,0-.23-.13-.22-.29S114.44,55.36,114.54,55.27Z"/><path class="cls-1" d="M93.91,67.09c0,.22,0,.42-.21.4a.39.39,0,0,1-.36-.36.29.29,0,0,1,.27-.29h0C93.79,66.87,93.94,67,93.91,67.09Z"/><path class="cls-1" d="M115.22,60.89a.26.26,0,0,1-.26.29c-.19,0-.28,0-.28-.24s0-.26.21-.26S115.22,60.69,115.22,60.89Z"/><path class="cls-1" d="M115.6,56.25c0,.14,0,.29-.19.28a.27.27,0,0,1-.28-.24v0a.28.28,0,0,1,.23-.31h0C115.61,55.92,115.6,56.09,115.6,56.25Z"/><path class="cls-1" d="M117.16,55.72a.28.28,0,0,1,.24.31h0a.23.23,0,0,1-.24.25c-.14,0-.24-.21-.23-.39S117,55.7,117.16,55.72Z"/><path class="cls-1" d="M60,50.43a.23.23,0,0,1-.24-.25.38.38,0,0,1,.33-.33c.18,0,.25.16.23.32a.28.28,0,0,1-.3.26Z"/><path class="cls-1" d="M43.88,49.31c-.09.12-.07.35-.31.33a.23.23,0,0,1-.24-.22v0a.39.39,0,0,1,.32-.34C43.79,49,43.86,49.17,43.88,49.31Z"/><path class="cls-1" d="M24.91,71.26a.5.5,0,0,1-.36-.34.19.19,0,0,1,.13-.25h.08a.37.37,0,0,1,.33.31C25.14,71.09,25,71.18,24.91,71.26Z"/><path class="cls-1" d="M37.83,47.68a.29.29,0,0,1,.29.27h0a.25.25,0,0,1-.2.3c-.18,0-.26-.12-.27-.29S37.62,47.7,37.83,47.68Z"/><path class="cls-1" d="M90.16,67.83c0,.16,0,.31-.21.34s-.24-.11-.25-.25a.28.28,0,0,1,.23-.33H90C90.15,67.59,90.16,67.71,90.16,67.83Z"/><path class="cls-1" d="M114.07,62.09c-.17,0-.22-.13-.25-.24s.08-.24.23-.24a.25.25,0,0,1,.28.2v0A.24.24,0,0,1,114.07,62.09Z"/><path class="cls-1" d="M32.58,49.84a.27.27,0,0,1,.22.29c0,.17-.09.31-.27.28a.26.26,0,0,1-.19-.31A.28.28,0,0,1,32.58,49.84Z"/><path class="cls-1" d="M51.92,49.87c0,.17-.08.23-.24.23s-.23-.09-.23-.25a.22.22,0,0,1,.27-.25C51.91,49.62,51.93,49.72,51.92,49.87Z"/><path class="cls-1" d="M45.44,49.09a.28.28,0,0,1,.26.28.25.25,0,0,1-.28.26c-.12,0-.19-.14-.19-.28S45.22,49,45.44,49.09Z"/><path class="cls-1" d="M97.29,66.67c.19,0,.34,0,.34.22a.26.26,0,0,1-.26.23.31.31,0,0,1-.3-.27C97,66.64,97.22,66.7,97.29,66.67Z"/><path class="cls-1" d="M34,70.09c-.13,0-.25,0-.26-.17a.3.3,0,0,1,.27-.31.22.22,0,0,1,.24.24A.26.26,0,0,1,34,70.09Z"/><path class="cls-1" d="M52.71,50.88c-.26,0-.24-.14-.24-.27s0-.29.2-.26.21.21.21.35A.18.18,0,0,1,52.71,50.88Z"/><path class="cls-1" d="M23.84,70c.26,0,.27.16.34.28a.16.16,0,0,1-.05.23.13.13,0,0,1-.08,0c-.21,0-.21-.22-.29-.36S23.8,70,23.84,70Z"/><path class="cls-1" d="M23.51,48.89c0,.12,0,.18-.14.19s-.22-.16-.26-.29a.16.16,0,0,1,.13-.19h0C23.46,48.58,23.42,48.8,23.51,48.89Z"/><path class="cls-1" d="M141.61,11.16a3.09,3.09,0,0,1-.83,1.19,3.18,3.18,0,0,0-.75,1.16c-.16.55-.66.75-1.09,1a.32.32,0,0,1-.48-.41,1,1,0,0,0-.24-1.18c-.26-.27-.07-.53.06-.77a1.07,1.07,0,0,1,.67-.64.24.24,0,0,1,.27.19v0c0,.3.12.52.45.55a.68.68,0,0,0,.75-.39c.15-.44.59-.57.78-.94a.23.23,0,0,1,.29-.12C141.63,10.88,141.6,11,141.61,11.16Z"/><path class="cls-1" d="M144.62,14.77c.61,0,.8.29.49.78a4.54,4.54,0,0,1-1,1.05.26.26,0,0,1-.3.08c-.11-.07-.1-.2-.08-.31.06-.36.12-.72.19-1.09a.53.53,0,0,1,.55-.53A.39.39,0,0,1,144.62,14.77Z"/><path class="cls-1" d="M136,25.88q-.44-.18-.18-.6c.22-.36.61-.54.9-.82a5.59,5.59,0,0,1,.89-.57c.12-.08.25-.13.34,0a.22.22,0,0,1-.09.31l0,0c-.57.12-.72.61-.91,1A1.54,1.54,0,0,1,136,25.88Z"/><path class="cls-1" d="M110.78,60.77c0-.06.09-.19.19-.08s0,.16-.08.22Z"/></svg>